<?xml version='1.0' encoding='utf-8'?>
<svg xmlns="http://www.w3.org/2000/svg" version="1.1" id="Frame_0" width="1920px" height="1080px"> <g id="Layer_5"> <g id="Layer_1"> <clipPath id="51717ac6-f5b3-4f12-a1b4-5676ad45e88b"> <path fill="#95500d" fill-rule="evenodd" stroke="none" d="M 954.077 198.179 C 1145.466 198.179 1299.860 352.574 1299.860 543.962 C 1299.860 735.350 1145.466 889.744 954.077 889.744 C 762.689 889.744 608.295 735.350 608.295 543.962 C 608.295 352.574 762.689 198.180 954.077 198.179 Z"/> </clipPath> <path fill="#95500d" fill-rule="evenodd" stroke="#000000" stroke-width="6" stroke-opacity="0.000000" stroke-linecap="round" stroke-linejoin="round" d="M 954.077 198.179 C 1145.466 198.179 1299.860 352.574 1299.860 543.962 C 1299.860 735.350 1145.466 889.744 954.077 889.744 C 762.689 889.744 608.295 735.350 608.295 543.962 C 608.295 352.574 762.689 198.180 954.077 198.179 Z"/> </g> <g id="Layer_3"> <path fill="#cf851c" fill-rule="evenodd" fill-opacity="0.447059" stroke="#000000" stroke-width="6" stroke-opacity="0.000000" stroke-linecap="round" stroke-linejoin="round" d="M 1263.135 363.561 C 1263.135 363.561 1263.135 363.561 1263.135 363.561 C 1247.206 349.401 1225.732 330.780 1210.036 316.362 C 1203.581 310.432 1194.898 302.594 1188.796 296.302 C 1177.969 285.138 1168.911 263.395 1154.577 257.362 C 1146.746 254.066 1134.334 259.996 1126.257 257.362 C 1118.784 254.925 1112.620 244.016 1105.017 242.022 C 1091.844 238.566 1072.631 254.613 1060.177 249.102 C 1049.940 244.572 1047.893 225.139 1038.937 218.422 C 1029.982 211.706 1012.221 199.557 1003.538 206.622 C 999.410 209.981 1005.094 219.758 1002.358 224.323 C 995.845 235.184 977.227 242.249 964.598 243.202 C 949.305 244.355 931.530 227.557 916.218 226.682 C 897.358 225.605 873.722 241.885 854.859 240.842 C 849.713 240.558 841.390 240.277 838.339 236.122 C 833.211 229.137 840.593 216.029 841.560 207.418 C 841.560 207.418 841.560 207.418 841.560 207.418 C 859.520 201.550 882.810 191.074 901.429 187.857 C 939.806 181.228 993.053 179.638 1031.244 187.264 C 1070.240 195.051 1120.156 216.943 1153.354 238.835 C 1174.676 252.896 1198.764 277.713 1215.594 296.925 C 1231.775 315.397 1263.131 363.554 1263.135 363.561 C 1263.135 363.561 1263.135 363.561 1263.135 363.561 Z" clip-path="url(#51717ac6-f5b3-4f12-a1b4-5676ad45e88b)"/> <path fill="#cf851c" fill-rule="evenodd" fill-opacity="0.447059" stroke="#000000" stroke-width="6" stroke-opacity="0.000000" stroke-linecap="round" stroke-linejoin="round" d="M 1308.339 544.803 C 1308.339 544.803 1308.339 544.803 1308.339 544.803 C 1307.249 546.438 1306.634 549.882 1304.704 550.255 C 1300.414 551.085 1296.063 543.999 1294.405 539.956 C 1292.889 536.257 1295.164 530.554 1294.405 526.628 C 1293.169 520.231 1286.874 513.081 1285.923 506.636 C 1285.124 501.215 1287.257 493.920 1287.741 488.461 C 1288.370 481.380 1290.570 471.871 1289.559 464.834 C 1288.281 455.948 1280.086 445.829 1278.653 436.966 C 1276.823 425.640 1280.350 410.250 1281.077 398.800 C 1281.077 398.800 1281.077 398.800 1281.077 398.800 C 1286.893 412.067 1296.431 429.111 1300.463 443.025 C 1304.913 458.381 1307.164 479.787 1308.339 495.731 C 1309.421 510.413 1308.339 544.798 1308.339 544.803 C 1308.339 544.803 1308.339 544.803 1308.339 544.803 Z" clip-path="url(#51717ac6-f5b3-4f12-a1b4-5676ad45e88b)"/> <path fill="#cf851c" fill-rule="evenodd" fill-opacity="0.447059" stroke="none" d="M 1308.692 585.280 C 1308.692 585.280 1308.692 585.280 1308.692 585.280 C 1304.412 579.288 1297.809 571.848 1294.426 565.308 C 1291.591 559.826 1290.627 551.274 1287.579 545.907 C 1284.158 539.884 1275.777 534.444 1272.743 528.218 C 1268.918 520.371 1272.780 506.259 1267.036 499.686 C 1261.087 492.879 1247.476 488.863 1238.505 489.986 C 1228.941 491.183 1221.224 509.058 1211.686 507.675 C 1203.526 506.492 1201.642 486.442 1193.426 487.133 C 1190.167 487.407 1187.260 492.100 1186.008 495.121 C 1181.015 507.166 1189.494 525.466 1188.861 538.489 C 1188.382 548.356 1175.322 565.821 1183.725 571.014 C 1190.048 574.921 1198.773 555.684 1205.409 559.031 C 1212.633 562.675 1202.208 580.482 1208.262 585.850 C 1211.858 589.039 1219.656 585.549 1224.240 586.992 C 1229.000 588.490 1233.611 596.529 1238.505 595.551 C 1242.569 594.738 1243.219 586.254 1247.065 584.709 C 1247.700 584.454 1248.673 584.829 1249.347 584.709 C 1251.538 584.319 1254.015 582.308 1256.194 581.856 C 1256.833 581.724 1257.713 581.777 1258.364 581.743 C 1258.364 581.743 1258.364 581.743 1258.364 581.743 C 1260.795 583.660 1264.818 585.512 1266.466 588.133 C 1267.593 589.926 1268.187 592.863 1268.177 594.980 C 1268.127 606.403 1249.967 621.005 1255.624 630.930 C 1256.838 633.059 1262.083 632.098 1263.042 634.353 C 1265.261 639.571 1255.122 645.362 1253.912 650.901 C 1252.076 659.305 1248.923 675.897 1256.765 679.432 C 1259.982 680.883 1264.346 673.518 1267.607 674.868 C 1275.487 678.130 1272.742 702.825 1272.743 702.828 C 1281.473 686.908 1296.391 667.079 1301.844 649.760 C 1307.688 631.206 1308.691 585.286 1308.692 585.280 C 1308.692 585.280 1308.692 585.280 1308.692 585.280 Z" clip-path="url(#51717ac6-f5b3-4f12-a1b4-5676ad45e88b)"/> <path fill="none" stroke="#000000" stroke-width="6" stroke-opacity="0.000000" stroke-linecap="round" stroke-linejoin="round" d="M 1272.743 702.828 C 1272.743 702.828 1272.743 702.828 1272.743 702.828 C 1272.742 702.825 1275.487 678.130 1267.607 674.868 C 1264.346 673.518 1259.982 680.883 1256.765 679.432 C 1248.923 675.897 1252.076 659.305 1253.912 650.901 C 1255.122 645.362 1265.261 639.571 1263.042 634.353 C 1262.083 632.098 1256.838 633.059 1255.624 630.930 C 1249.967 621.005 1268.127 606.403 1268.177 594.980 C 1268.187 592.863 1267.593 589.926 1266.466 588.133 C 1264.818 585.512 1260.795 583.660 1258.364 581.743 C 1257.713 581.777 1256.833 581.724 1256.194 581.856 C 1254.015 582.308 1251.538 584.319 1249.347 584.709 C 1248.673 584.829 1247.700 584.454 1247.065 584.709 C 1243.219 586.254 1242.569 594.738 1238.505 595.551 C 1233.611 596.529 1229.000 588.490 1224.240 586.992 C 1219.656 585.549 1211.858 589.039 1208.262 585.850 C 1202.208 580.482 1212.633 562.675 1205.409 559.031 C 1198.773 555.684 1190.048 574.921 1183.725 571.014 C 1175.322 565.821 1188.382 548.356 1188.861 538.489 C 1189.494 525.466 1181.015 507.166 1186.008 495.121 C 1187.260 492.100 1190.167 487.407 1193.426 487.133 C 1201.642 486.442 1203.526 506.492 1211.686 507.675 C 1221.224 509.058 1228.941 491.183 1238.505 489.986 C 1247.476 488.863 1261.087 492.879 1267.036 499.686 C 1272.780 506.259 1268.918 520.371 1272.743 528.218 C 1275.777 534.444 1284.158 539.884 1287.579 545.907 C 1290.627 551.274 1291.591 559.826 1294.426 565.308 C 1297.809 571.848 1304.412 579.288 1308.692 585.280 C 1308.692 585.280 1308.692 585.280 1308.692 585.280 C 1308.691 585.286 1307.688 631.206 1301.844 649.760 C 1296.391 667.079 1281.473 686.908 1272.743 702.828 M 1258.364 581.743 C 1258.364 581.743 1258.364 581.743 1258.364 581.743 M 1308.692 585.280 C 1308.692 585.280 1308.692 585.280 1308.692 585.280 " clip-path="url(#51717ac6-f5b3-4f12-a1b4-5676ad45e88b)"/> <path fill="#cf851c" fill-rule="evenodd" fill-opacity="0.447059" stroke="none" d="M 627.871 517.008 C 625.453 487.240 631.266 447.403 632.722 417.572 C 632.719 417.577 607.407 454.975 602.406 473.353 C 594.667 501.788 597.655 542.321 601.193 571.577 C 607.444 623.273 621.456 693.700 647.273 738.922 C 670.490 779.590 715.001 827.674 755.198 851.697 C 793.460 874.564 854.156 885.464 898.290 891.714 C 936.046 897.061 987.699 899.129 1025.389 893.334 C 1049.811 889.579 1081.771 879.511 1103.972 868.663 C 1118.522 861.553 1135.313 847.555 1148.745 838.509 C 1132.166 840.360 1109.722 840.865 1093.482 844.679 C 1073.171 849.449 1048.876 865.508 1028.290 868.893 C 1013.125 871.387 991.299 873.766 977.068 867.961 C 966.992 863.852 959.081 849.834 950.060 843.747 C 940.013 836.967 925.565 828.710 913.739 826.053 C 904.471 823.970 891.311 828.274 882.075 826.053 C 865.663 822.105 843.015 812.417 832.715 799.044 C 824.940 788.950 830.126 767.482 821.540 758.067 C 813.673 749.441 794.014 751.774 785.218 744.097 C 771.756 732.348 768.663 705.505 758.211 691.013 C 750.236 679.955 739.267 663.321 726.546 658.417 C 720.811 656.206 711.104 661.926 706.057 658.417 C 693.144 649.438 704.663 619.511 694.882 607.195 C 683.858 593.314 652.306 596.313 641.210 582.491 C 628.660 566.857 629.494 536.991 627.871 517.008 M 1148.745 838.509 C 1148.745 838.509 1148.745 838.509 1148.745 838.509 Z" clip-path="url(#51717ac6-f5b3-4f12-a1b4-5676ad45e88b)"/> <path fill="none" stroke="#000000" stroke-width="6" stroke-opacity="0.000000" stroke-linecap="round" stroke-linejoin="round" d="M 632.722 417.572 C 632.722 417.572 632.722 417.572 632.722 417.572 C 631.266 447.403 625.453 487.240 627.871 517.008 C 629.494 536.991 628.660 566.857 641.210 582.491 C 652.306 596.313 683.858 593.314 694.882 607.195 C 704.663 619.511 693.144 649.438 706.057 658.417 C 711.104 661.926 720.811 656.206 726.546 658.417 C 739.267 663.321 750.236 679.955 758.211 691.013 C 768.663 705.505 771.756 732.348 785.218 744.097 C 794.014 751.774 813.673 749.441 821.540 758.067 C 830.126 767.482 824.940 788.950 832.715 799.044 C 843.015 812.417 865.663 822.105 882.075 826.053 C 891.311 828.274 904.471 823.970 913.739 826.053 C 925.565 828.710 940.013 836.967 950.060 843.747 C 959.081 849.834 966.992 863.852 977.068 867.961 C 991.299 873.766 1013.125 871.387 1028.290 868.893 C 1048.876 865.508 1073.171 849.449 1093.482 844.679 C 1109.722 840.865 1132.166 840.360 1148.745 838.509 C 1148.745 838.509 1148.745 838.509 1148.745 838.509 C 1135.313 847.555 1118.522 861.553 1103.972 868.663 C 1081.771 879.511 1049.811 889.579 1025.389 893.334 C 987.699 899.129 936.046 897.061 898.290 891.714 C 854.156 885.464 793.460 874.564 755.198 851.697 C 715.001 827.674 670.490 779.590 647.273 738.922 C 621.456 693.700 607.444 623.273 601.193 571.577 C 597.655 542.321 594.667 501.788 602.406 473.353 C 607.407 454.975 632.719 417.577 632.722 417.572 " clip-path="url(#51717ac6-f5b3-4f12-a1b4-5676ad45e88b)"/> <path fill="#632703" fill-rule="evenodd" fill-opacity="0.447059" stroke="#000000" stroke-width="6" stroke-opacity="0.000000" stroke-linecap="round" stroke-linejoin="round" d="M 806.773 298.471 C 796.020 299.157 782.167 304.893 771.394 304.662 C 762.445 304.470 750.875 296.239 742.207 298.471 C 728.756 301.934 716.219 318.701 708.597 330.312 C 702.376 339.788 703.273 357.605 695.329 365.691 C 691.836 369.248 683.882 369.307 680.293 372.767 C 673.968 378.863 666.691 390.602 667.910 399.301 C 669.241 408.794 685.345 414.379 689.138 423.182 C 692.407 430.772 686.586 444.182 691.791 450.601 C 698.885 459.351 718.546 454.293 728.055 460.331 C 735.199 464.866 738.344 479.838 746.629 481.558 C 761.778 484.703 776.576 460.987 790.853 455.023 C 803.502 449.740 825.554 453.386 835.077 443.525 C 844.154 434.126 834.110 408.576 844.806 401.070 C 849.584 397.717 859.211 403.993 864.265 401.070 C 870.534 397.444 868.788 381.795 875.763 379.843 C 884.268 377.463 891.753 396.768 900.528 395.763 C 910.601 394.610 925.746 380.891 923.525 370.998 C 920.225 356.305 880.411 372.622 874.878 358.616 C 870.910 348.570 891.505 337.574 891.683 326.774 C 891.803 319.528 887.750 309.014 881.954 304.662 C 878.500 302.068 872.048 302.805 867.803 302.009 C 867.803 302.009 867.803 302.009 867.803 302.009 C 868.068 302.274 825.076 297.304 806.773 298.471 Z" clip-path="url(#51717ac6-f5b3-4f12-a1b4-5676ad45e88b)"/> <path fill="#632703" fill-rule="evenodd" fill-opacity="0.447059" stroke="#000000" stroke-width="6" stroke-opacity="0.000000" stroke-linecap="round" stroke-linejoin="round" d="M 962.240 306.894 C 965.528 313.185 978.428 313.173 982.634 318.891 C 987.654 325.714 989.072 338.023 988.632 346.482 C 988.160 355.575 978.849 366.171 979.035 375.274 C 979.273 386.900 1002.510 403.998 993.431 411.263 C 982.883 419.704 973.147 378.937 959.841 381.272 C 947.618 383.417 938.697 404.875 939.447 417.262 C 940.086 427.827 959.206 435.488 959.841 446.053 C 960.401 455.373 954.152 470.275 945.445 473.645 C 931.333 479.108 914.471 448.119 899.858 452.052 C 885.110 456.021 884.796 487.347 871.067 494.040 C 863.626 497.667 848.850 487.745 843.474 494.040 C 836.781 501.876 842.860 520.909 850.673 527.630 C 862.132 537.487 886.835 522.512 901.058 527.630 C 907.831 530.067 913.055 542.105 920.252 542.026 C 929.191 541.927 934.125 523.411 943.046 522.831 C 956.406 521.963 966.193 545.435 979.035 549.223 C 988.362 551.974 1001.782 549.267 1011.426 548.024 C 1025.712 546.182 1046.844 528.380 1058.212 537.227 C 1065.646 543.012 1064.646 559.435 1061.811 568.418 C 1058.591 578.622 1037.784 584.110 1037.818 594.810 C 1037.851 605.002 1050.470 618.992 1060.612 620.003 C 1069.854 620.923 1076.581 600.916 1085.804 602.008 C 1098.029 603.456 1099.431 630.183 1110.997 634.398 C 1122.404 638.556 1144.691 636.615 1150.585 626.001 C 1154.954 618.135 1139.722 605.862 1142.188 597.209 C 1145.055 587.148 1164.891 584.206 1168.580 574.416 C 1174.131 559.686 1165.958 536.943 1158.983 522.831 C 1154.347 513.453 1139.701 506.294 1136.190 496.439 C 1131.472 483.200 1143.301 462.894 1138.589 449.653 C 1135.592 441.230 1121.130 435.629 1119.395 426.859 C 1116.941 414.462 1138.768 398.887 1133.790 387.271 C 1127.419 372.403 1099.563 367.316 1083.405 368.076 C 1075.994 368.425 1067.879 379.170 1060.612 377.673 C 1043.480 374.145 1023.374 348.206 1025.822 330.887 C 1027.319 320.292 1049.538 317.254 1052.214 306.894 C 1054.776 296.977 1049.439 280.872 1041.417 274.504 C 1027.884 263.761 995.376 260.446 983.834 273.304 C 979.980 277.597 987.566 289.504 982.634 292.498 C 978.561 294.970 972.383 285.518 967.801 286.825 C 965.537 287.470 964.089 290.875 962.497 292.610 C 962.497 292.610 962.497 292.610 962.497 292.610 C 962.420 292.577 960.254 303.096 962.240 306.894 Z" clip-path="url(#51717ac6-f5b3-4f12-a1b4-5676ad45e88b)"/> </g> <g id="Layer_3"> <path fill="#753603" fill-rule="evenodd" stroke="#000000" stroke-width="6" stroke-opacity="0.000000" stroke-linecap="round" stroke-linejoin="round" d="M 836.351 294.544 C 827.988 294.544 821.242 301.290 821.242 309.652 C 821.242 318.015 827.988 324.761 836.351 324.761 C 844.713 324.761 851.459 318.015 851.459 309.652 C 851.459 301.290 844.713 294.544 836.351 294.544 Z" clip-path="url(#51717ac6-f5b3-4f12-a1b4-5676ad45e88b)"/> <path fill="#753603" fill-rule="evenodd" stroke="#000000" stroke-width="6" stroke-opacity="0.000000" stroke-linecap="round" stroke-linejoin="round" d="M 809.058 400.791 C 800.696 400.791 793.949 407.537 793.949 415.900 C 793.949 424.262 800.696 431.009 809.058 431.009 C 817.421 431.009 824.167 424.262 824.167 415.900 C 824.167 407.537 817.421 400.791 809.058 400.791 Z" clip-path="url(#51717ac6-f5b3-4f12-a1b4-5676ad45e88b)"/> <path fill="#753603" fill-rule="evenodd" stroke="#000000" stroke-width="6" stroke-opacity="0.000000" stroke-linecap="round" stroke-linejoin="round" d="M 939.761 448.546 C 949.421 448.546 957.214 456.339 957.214 465.999 C 957.214 475.659 949.421 483.453 939.761 483.453 C 930.100 483.453 922.307 475.659 922.307 465.999 C 922.308 456.339 930.101 448.546 939.761 448.546 Z" clip-path="url(#51717ac6-f5b3-4f12-a1b4-5676ad45e88b)"/> <path fill="#753603" fill-rule="evenodd" stroke="#000000" stroke-width="6" stroke-opacity="0.000000" stroke-linecap="round" stroke-linejoin="round" d="M 1191.789 709.650 C 1201.836 709.650 1209.941 717.754 1209.941 727.801 C 1209.941 737.848 1201.836 745.953 1191.789 745.953 C 1181.742 745.953 1173.637 737.848 1173.637 727.801 C 1173.637 717.754 1181.742 709.650 1191.789 709.650 Z" clip-path="url(#51717ac6-f5b3-4f12-a1b4-5676ad45e88b)"/> <path fill="#753603" fill-rule="evenodd" stroke="#000000" stroke-width="6" stroke-opacity="0.000000" stroke-linecap="round" stroke-linejoin="round" d="M 1259.508 568.625 C 1269.169 568.625 1276.962 576.419 1276.962 586.079 C 1276.962 595.740 1269.169 603.533 1259.508 603.533 C 1249.848 603.533 1242.055 595.740 1242.055 586.079 C 1242.055 576.419 1249.848 568.625 1259.508 568.625 Z" clip-path="url(#51717ac6-f5b3-4f12-a1b4-5676ad45e88b)"/> <path fill="#753603" fill-rule="evenodd" stroke="#000000" stroke-width="6" stroke-opacity="0.000000" stroke-linecap="round" stroke-linejoin="round" d="M 874.834 540.700 C 888.745 540.700 899.967 551.922 899.967 565.833 C 899.967 579.744 888.745 590.966 874.834 590.966 C 860.923 590.966 849.701 579.744 849.701 565.833 C 849.701 551.922 860.923 540.700 874.834 540.700 Z" clip-path="url(#51717ac6-f5b3-4f12-a1b4-5676ad45e88b)"/> <path fill="#753603" fill-rule="evenodd" stroke="#000000" stroke-width="6" stroke-opacity="0.000000" stroke-linecap="round" stroke-linejoin="round" d="M 780.585 624.477 C 792.564 624.476 802.228 634.140 802.228 646.119 C 802.228 658.098 792.564 667.761 780.585 667.761 C 768.606 667.761 758.943 658.098 758.943 646.119 C 758.943 634.140 768.606 624.477 780.585 624.477 Z" clip-path="url(#51717ac6-f5b3-4f12-a1b4-5676ad45e88b)"/> <path fill="#753603" fill-rule="evenodd" stroke="#000000" stroke-width="6" stroke-opacity="0.000000" stroke-linecap="round" stroke-linejoin="round" d="M 1145.014 375.939 C 1153.901 375.939 1161.071 383.109 1161.071 391.996 C 1161.071 400.884 1153.901 408.054 1145.014 408.054 C 1136.126 408.054 1128.956 400.884 1128.956 391.996 C 1128.956 383.109 1136.126 375.939 1145.014 375.939 Z" clip-path="url(#51717ac6-f5b3-4f12-a1b4-5676ad45e88b)"/> <path fill="#753603" fill-rule="evenodd" stroke="#000000" stroke-width="6" stroke-opacity="0.000000" stroke-linecap="round" stroke-linejoin="round" d="M 1071.011 570.022 C 1082.217 570.022 1091.257 579.062 1091.257 590.268 C 1091.257 601.474 1082.217 610.514 1071.011 610.514 C 1059.805 610.514 1050.765 601.474 1050.765 590.268 C 1050.765 579.062 1059.805 570.022 1071.011 570.022 Z" clip-path="url(#51717ac6-f5b3-4f12-a1b4-5676ad45e88b)"/> <path fill="#753603" fill-rule="evenodd" stroke="#000000" stroke-width="6" stroke-opacity="0.000000" stroke-linecap="round" stroke-linejoin="round" d="M 1089.861 254.463 C 1099.908 254.463 1108.012 262.568 1108.012 272.615 C 1108.012 282.661 1099.908 290.766 1089.861 290.766 C 1079.814 290.766 1071.709 282.661 1071.709 272.615 C 1071.709 262.568 1079.814 254.463 1089.861 254.463 Z" clip-path="url(#51717ac6-f5b3-4f12-a1b4-5676ad45e88b)"/> <path fill="#753603" fill-rule="evenodd" stroke="#000000" stroke-width="6" stroke-opacity="0.000000" stroke-linecap="round" stroke-linejoin="round" d="M 1049.368 322.881 C 1058.643 322.880 1066.124 330.362 1066.124 339.636 C 1066.124 348.910 1058.642 356.391 1049.368 356.391 C 1040.094 356.391 1032.613 348.910 1032.613 339.636 C 1032.613 330.362 1040.094 322.881 1049.368 322.881 Z" clip-path="url(#51717ac6-f5b3-4f12-a1b4-5676ad45e88b)"/> <path fill="#753603" fill-rule="evenodd" stroke="#000000" stroke-width="6" stroke-opacity="0.000000" stroke-linecap="round" stroke-linejoin="round" d="M 1108.012 325.673 C 1116.513 325.674 1123.371 332.531 1123.371 341.032 C 1123.371 349.533 1116.513 356.391 1108.012 356.391 C 1099.511 356.391 1092.653 349.533 1092.653 341.032 C 1092.653 332.531 1099.511 325.673 1108.012 325.673 Z" clip-path="url(#51717ac6-f5b3-4f12-a1b4-5676ad45e88b)"/> <path fill="#753603" fill-rule="evenodd" stroke="#000000" stroke-width="6" stroke-opacity="0.000000" stroke-linecap="round" stroke-linejoin="round" d="M 1168.052 321.485 C 1180.418 321.485 1190.393 331.460 1190.393 343.825 C 1190.393 356.190 1180.418 366.165 1168.052 366.165 C 1155.687 366.165 1145.712 356.190 1145.712 343.825 C 1145.712 331.460 1155.687 321.485 1168.052 321.485 Z" clip-path="url(#51717ac6-f5b3-4f12-a1b4-5676ad45e88b)"/> <path fill="#753603" fill-rule="evenodd" stroke="#000000" stroke-width="6" stroke-opacity="0.000000" stroke-linecap="round" stroke-linejoin="round" d="M 1153.391 278.200 C 1159.188 278.200 1163.864 282.876 1163.864 288.672 C 1163.864 294.468 1159.188 299.144 1153.391 299.144 C 1147.595 299.144 1142.919 294.468 1142.919 288.672 C 1142.919 282.876 1147.595 278.200 1153.391 278.200 Z" clip-path="url(#51717ac6-f5b3-4f12-a1b4-5676ad45e88b)"/> <path fill="#753603" fill-rule="evenodd" stroke="#000000" stroke-width="6" stroke-opacity="0.000000" stroke-linecap="round" stroke-linejoin="round" d="M 1117.907 240.982 C 1124.476 240.982 1129.775 246.281 1129.775 252.850 C 1129.775 259.419 1124.476 264.718 1117.907 264.718 C 1111.338 264.718 1106.038 259.419 1106.038 252.850 C 1106.038 246.281 1111.338 240.982 1117.907 240.982 Z" clip-path="url(#51717ac6-f5b3-4f12-a1b4-5676ad45e88b)"/> <path fill="#412000" fill-rule="evenodd" stroke="#000000" stroke-width="6" stroke-opacity="0.000000" stroke-linecap="round" stroke-linejoin="round" d="M 1117.850 247.074 C 1121.134 247.074 1123.784 249.724 1123.784 253.009 C 1123.784 256.294 1121.134 258.943 1117.850 258.944 C 1114.565 258.944 1111.915 256.294 1111.915 253.009 C 1111.915 249.724 1114.565 247.074 1117.850 247.074 Z" clip-path="url(#51717ac6-f5b3-4f12-a1b4-5676ad45e88b)"/> <path fill="#412000" fill-rule="evenodd" stroke="#000000" stroke-width="6" stroke-opacity="0.000000" stroke-linecap="round" stroke-linejoin="round" d="M 1091.451 265.492 C 1095.981 265.492 1099.636 269.147 1099.636 273.677 C 1099.637 278.208 1095.981 281.863 1091.451 281.863 C 1086.920 281.863 1083.265 278.208 1083.265 273.677 C 1083.265 269.147 1086.920 265.492 1091.451 265.492 Z" clip-path="url(#51717ac6-f5b3-4f12-a1b4-5676ad45e88b)"/> <path fill="#412000" fill-rule="evenodd" stroke="#000000" stroke-width="6" stroke-opacity="0.000000" stroke-linecap="round" stroke-linejoin="round" d="M 1154.685 283.091 C 1157.516 283.091 1159.801 285.376 1159.801 288.207 C 1159.801 291.039 1157.516 293.323 1154.685 293.323 C 1151.853 293.323 1149.569 291.039 1149.569 288.207 C 1149.569 285.376 1151.853 283.091 1154.685 283.091 Z" clip-path="url(#51717ac6-f5b3-4f12-a1b4-5676ad45e88b)"/> <path fill="#412000" fill-rule="evenodd" stroke="#000000" stroke-width="6" stroke-opacity="0.000000" stroke-linecap="round" stroke-linejoin="round" d="M 1168.805 335.069 C 1174.241 335.069 1178.627 339.455 1178.627 344.892 C 1178.627 350.329 1174.241 354.715 1168.805 354.715 C 1163.368 354.715 1158.982 350.329 1158.982 344.892 C 1158.982 339.455 1163.368 335.069 1168.805 335.069 Z" clip-path="url(#51717ac6-f5b3-4f12-a1b4-5676ad45e88b)"/> <path fill="#412000" fill-rule="evenodd" stroke="#000000" stroke-width="6" stroke-opacity="0.000000" stroke-linecap="round" stroke-linejoin="round" d="M 1109.254 335.479 C 1113.219 335.479 1116.417 338.677 1116.417 342.641 C 1116.417 346.606 1113.219 349.803 1109.254 349.803 C 1105.290 349.803 1102.092 346.606 1102.092 342.641 C 1102.092 338.677 1105.290 335.479 1109.254 335.479 Z" clip-path="url(#51717ac6-f5b3-4f12-a1b4-5676ad45e88b)"/> <path fill="#412000" fill-rule="evenodd" stroke="#000000" stroke-width="6" stroke-opacity="0.000000" stroke-linecap="round" stroke-linejoin="round" d="M 1050.318 332.204 C 1055.189 332.204 1059.118 336.134 1059.118 341.004 C 1059.117 345.874 1055.189 349.803 1050.318 349.803 C 1045.448 349.803 1041.519 345.874 1041.519 341.004 C 1041.519 336.134 1045.448 332.204 1050.318 332.204 Z" clip-path="url(#51717ac6-f5b3-4f12-a1b4-5676ad45e88b)"/> <path fill="#412000" fill-rule="evenodd" stroke="#000000" stroke-width="6" stroke-opacity="0.000000" stroke-linecap="round" stroke-linejoin="round" d="M 1146.485 382.618 C 1151.819 382.618 1156.123 386.921 1156.123 392.255 C 1156.123 397.589 1151.819 401.892 1146.485 401.892 C 1141.151 401.892 1136.847 397.589 1136.847 392.255 C 1136.847 386.921 1141.151 382.617 1146.485 382.618 Z" clip-path="url(#51717ac6-f5b3-4f12-a1b4-5676ad45e88b)"/> <path fill="#412000" fill-rule="evenodd" stroke="#000000" stroke-width="6" stroke-opacity="0.000000" stroke-linecap="round" stroke-linejoin="round" d="M 940.773 455.971 C 946.399 455.971 950.938 460.510 950.938 466.136 C 950.938 471.762 946.399 476.301 940.773 476.301 C 935.147 476.301 930.608 471.762 930.608 466.136 C 930.608 460.510 935.147 455.971 940.773 455.971 Z" clip-path="url(#51717ac6-f5b3-4f12-a1b4-5676ad45e88b)"/> <path fill="#412000" fill-rule="evenodd" stroke="#000000" stroke-width="6" stroke-opacity="0.000000" stroke-linecap="round" stroke-linejoin="round" d="M 810.991 407.274 C 815.440 407.274 819.029 410.863 819.029 415.311 C 819.029 419.760 815.440 423.349 810.991 423.349 C 806.543 423.349 802.954 419.760 802.954 415.311 C 802.954 410.863 806.543 407.274 810.991 407.274 Z" clip-path="url(#51717ac6-f5b3-4f12-a1b4-5676ad45e88b)"/> <path fill="#412000" fill-rule="evenodd" stroke="#000000" stroke-width="6" stroke-opacity="0.000000" stroke-linecap="round" stroke-linejoin="round" d="M 837.519 302.325 C 841.512 302.325 844.733 305.546 844.733 309.539 C 844.733 313.532 841.512 316.754 837.519 316.754 C 833.526 316.754 830.305 313.532 830.305 309.539 C 830.305 305.546 833.526 302.325 837.519 302.325 Z" clip-path="url(#51717ac6-f5b3-4f12-a1b4-5676ad45e88b)"/> <path fill="#412000" fill-rule="evenodd" stroke="#000000" stroke-width="6" stroke-opacity="0.000000" stroke-linecap="round" stroke-linejoin="round" d="M 874.462 552.336 C 882.171 552.336 888.389 558.554 888.389 566.262 C 888.389 573.970 882.171 580.188 874.462 580.188 C 866.754 580.188 860.536 573.970 860.536 566.262 C 860.536 558.554 866.754 552.336 874.462 552.336 Z" clip-path="url(#51717ac6-f5b3-4f12-a1b4-5676ad45e88b)"/> <path fill="#412000" fill-rule="evenodd" stroke="#000000" stroke-width="6" stroke-opacity="0.000000" stroke-linecap="round" stroke-linejoin="round" d="M 780.829 635.895 C 787.881 635.895 793.570 641.584 793.570 648.636 C 793.570 655.688 787.881 661.377 780.829 661.377 C 773.776 661.377 768.087 655.688 768.087 648.636 C 768.087 641.584 773.776 635.895 780.829 635.895 Z" clip-path="url(#51717ac6-f5b3-4f12-a1b4-5676ad45e88b)"/> <path fill="#412000" fill-rule="evenodd" stroke="#000000" stroke-width="6" stroke-opacity="0.000000" stroke-linecap="round" stroke-linejoin="round" d="M 1070.619 577.225 C 1077.015 577.225 1082.175 582.385 1082.175 588.781 C 1082.175 595.178 1077.015 600.337 1070.619 600.337 C 1064.223 600.337 1059.063 595.178 1059.063 588.781 C 1059.063 582.385 1064.223 577.225 1070.619 577.225 Z" clip-path="url(#51717ac6-f5b3-4f12-a1b4-5676ad45e88b)"/> <path fill="#412000" fill-rule="evenodd" stroke="#000000" stroke-width="6" stroke-opacity="0.000000" stroke-linecap="round" stroke-linejoin="round" d="M 1191.691 719.001 C 1197.458 719.001 1202.109 723.652 1202.109 729.419 C 1202.109 735.185 1197.458 739.836 1191.691 739.836 C 1185.925 739.836 1181.274 735.185 1181.274 729.419 C 1181.274 723.652 1185.925 719.001 1191.691 719.001 Z" clip-path="url(#51717ac6-f5b3-4f12-a1b4-5676ad45e88b)"/> <path fill="#412000" fill-rule="evenodd" stroke="#000000" stroke-width="6" stroke-opacity="0.000000" stroke-linecap="round" stroke-linejoin="round" d="M 1259.769 577.516 C 1265.401 577.516 1269.944 582.060 1269.944 587.692 C 1269.944 593.324 1265.401 597.867 1259.769 597.867 C 1254.137 597.867 1249.594 593.324 1249.593 587.692 C 1249.593 582.060 1254.137 577.516 1259.769 577.516 Z" clip-path="url(#51717ac6-f5b3-4f12-a1b4-5676ad45e88b)"/> <path fill="#753603" fill-rule="evenodd" stroke="#000000" stroke-width="6" stroke-opacity="0.000000" stroke-linecap="round" stroke-linejoin="round" d="M 1158.637 430.145 C 1167.911 430.144 1175.393 437.626 1175.393 446.900 C 1175.393 456.174 1167.911 463.655 1158.637 463.655 C 1149.364 463.655 1141.882 456.174 1141.882 446.900 C 1141.882 437.626 1149.363 430.145 1158.637 430.145 Z" clip-path="url(#51717ac6-f5b3-4f12-a1b4-5676ad45e88b)"/> <path fill="#412000" fill-rule="evenodd" stroke="#000000" stroke-width="6" stroke-opacity="0.000000" stroke-linecap="round" stroke-linejoin="round" d="M 1159.587 439.468 C 1164.458 439.468 1168.387 443.398 1168.387 448.268 C 1168.386 453.138 1164.458 457.067 1159.587 457.067 C 1154.717 457.067 1150.788 453.138 1150.788 448.268 C 1150.788 443.398 1154.717 439.468 1159.587 439.468 Z" clip-path="url(#51717ac6-f5b3-4f12-a1b4-5676ad45e88b)"/> <path fill="#753603" fill-rule="evenodd" stroke="#000000" stroke-width="6" stroke-opacity="0.000000" stroke-linecap="round" stroke-linejoin="round" d="M 1048.366 456.209 C 1057.640 456.209 1065.122 463.690 1065.122 472.964 C 1065.122 482.238 1057.640 489.720 1048.366 489.720 C 1039.092 489.719 1031.611 482.238 1031.611 472.964 C 1031.611 463.690 1039.092 456.209 1048.366 456.209 Z" clip-path="url(#51717ac6-f5b3-4f12-a1b4-5676ad45e88b)"/> <path fill="#412000" fill-rule="evenodd" stroke="#000000" stroke-width="6" stroke-opacity="0.000000" stroke-linecap="round" stroke-linejoin="round" d="M 1049.316 465.532 C 1054.187 465.532 1058.115 469.462 1058.115 474.332 C 1058.115 479.203 1054.186 483.132 1049.316 483.132 C 1044.446 483.132 1040.517 479.203 1040.517 474.332 C 1040.517 469.462 1044.446 465.532 1049.316 465.532 Z" clip-path="url(#51717ac6-f5b3-4f12-a1b4-5676ad45e88b)"/> <path fill="#753603" fill-rule="evenodd" stroke="#000000" stroke-width="6" stroke-opacity="0.000000" stroke-linecap="round" stroke-linejoin="round" d="M 1048.366 456.209 C 1057.640 456.209 1065.122 463.690 1065.122 472.964 C 1065.122 482.238 1057.640 489.720 1048.366 489.720 C 1039.092 489.719 1031.611 482.238 1031.611 472.964 C 1031.611 463.690 1039.092 456.209 1048.366 456.209 Z" clip-path="url(#51717ac6-f5b3-4f12-a1b4-5676ad45e88b)"/> <path fill="#412000" fill-rule="evenodd" stroke="#000000" stroke-width="6" stroke-opacity="0.000000" stroke-linecap="round" stroke-linejoin="round" d="M 1049.316 465.532 C 1054.187 465.532 1058.115 469.462 1058.115 474.332 C 1058.115 479.203 1054.186 483.132 1049.316 483.132 C 1044.446 483.132 1040.517 479.203 1040.517 474.332 C 1040.517 469.462 1044.446 465.532 1049.316 465.532 Z" clip-path="url(#51717ac6-f5b3-4f12-a1b4-5676ad45e88b)"/> <path fill="#753603" fill-rule="evenodd" stroke="#000000" stroke-width="6" stroke-opacity="0.000000" stroke-linecap="round" stroke-linejoin="round" d="M 947.117 296.816 C 956.391 296.816 963.873 304.298 963.873 313.572 C 963.873 322.846 956.391 330.327 947.117 330.327 C 937.843 330.327 930.362 322.846 930.362 313.572 C 930.362 304.298 937.843 296.816 947.117 296.816 Z" clip-path="url(#51717ac6-f5b3-4f12-a1b4-5676ad45e88b)"/> <path fill="#412000" fill-rule="evenodd" stroke="#000000" stroke-width="6" stroke-opacity="0.000000" stroke-linecap="round" stroke-linejoin="round" d="M 948.067 306.140 C 952.938 306.140 956.866 310.069 956.866 314.940 C 956.866 319.810 952.937 323.739 948.067 323.739 C 943.197 323.739 939.268 319.810 939.268 314.940 C 939.268 310.069 943.197 306.140 948.067 306.140 Z" clip-path="url(#51717ac6-f5b3-4f12-a1b4-5676ad45e88b)"/> <path fill="#753603" fill-rule="evenodd" stroke="#000000" stroke-width="6" stroke-opacity="0.000000" stroke-linecap="round" stroke-linejoin="round" d="M 947.117 296.816 C 956.391 296.816 963.873 304.298 963.873 313.572 C 963.873 322.846 956.391 330.327 947.117 330.327 C 937.843 330.327 930.362 322.846 930.362 313.572 C 930.362 304.298 937.843 296.816 947.117 296.816 Z" clip-path="url(#51717ac6-f5b3-4f12-a1b4-5676ad45e88b)"/> <path fill="#412000" fill-rule="evenodd" stroke="#000000" stroke-width="6" stroke-opacity="0.000000" stroke-linecap="round" stroke-linejoin="round" d="M 948.067 306.140 C 952.938 306.140 956.866 310.069 956.866 314.940 C 956.866 319.810 952.937 323.739 948.067 323.739 C 943.197 323.739 939.268 319.810 939.268 314.940 C 939.268 310.069 943.197 306.140 948.067 306.140 Z" clip-path="url(#51717ac6-f5b3-4f12-a1b4-5676ad45e88b)"/> <path fill="#753603" fill-rule="evenodd" stroke="#000000" stroke-width="6" stroke-opacity="0.000000" stroke-linecap="round" stroke-linejoin="round" d="M 1020.297 377.014 C 1029.572 377.014 1037.053 384.495 1037.053 393.770 C 1037.053 403.044 1029.572 410.525 1020.297 410.525 C 1011.024 410.525 1003.542 403.043 1003.542 393.770 C 1003.542 384.496 1011.023 377.014 1020.297 377.014 Z" clip-path="url(#51717ac6-f5b3-4f12-a1b4-5676ad45e88b)"/> <path fill="#412000" fill-rule="evenodd" stroke="#000000" stroke-width="6" stroke-opacity="0.000000" stroke-linecap="round" stroke-linejoin="round" d="M 1021.247 386.338 C 1026.107 386.658 1030.047 390.267 1030.047 395.137 C 1030.047 400.008 1026.107 403.617 1021.247 403.937 C 1015.754 404.299 1010.272 400.643 1010.272 395.137 C 1010.272 389.632 1015.754 385.976 1021.247 386.338 Z" clip-path="url(#51717ac6-f5b3-4f12-a1b4-5676ad45e88b)"/> <path fill="#753603" fill-rule="evenodd" stroke="#000000" stroke-width="6" stroke-opacity="0.000000" stroke-linecap="round" stroke-linejoin="round" d="M 1020.297 377.014 C 1029.572 377.014 1037.053 384.495 1037.053 393.770 C 1037.053 403.044 1029.572 410.525 1020.297 410.525 C 1011.024 410.525 1003.542 403.043 1003.542 393.770 C 1003.542 384.496 1011.023 377.014 1020.297 377.014 Z" clip-path="url(#51717ac6-f5b3-4f12-a1b4-5676ad45e88b)"/> <path fill="#412000" fill-rule="evenodd" stroke="#000000" stroke-width="6" stroke-opacity="0.000000" stroke-linecap="round" stroke-linejoin="round" d="M 1021.247 386.338 C 1026.107 386.658 1030.047 390.267 1030.047 395.137 C 1030.047 400.008 1026.107 403.617 1021.247 403.937 C 1015.754 404.299 1010.272 400.643 1010.272 395.137 C 1010.272 389.632 1015.754 385.976 1021.247 386.338 Z" clip-path="url(#51717ac6-f5b3-4f12-a1b4-5676ad45e88b)"/> <path fill="#753603" fill-rule="evenodd" stroke="#000000" stroke-width="6" stroke-opacity="0.000000" stroke-linecap="round" stroke-linejoin="round" d="M 1020.297 377.014 C 1029.572 377.014 1037.053 384.495 1037.053 393.770 C 1037.053 403.044 1029.572 410.525 1020.297 410.525 C 1011.024 410.525 1003.542 403.043 1003.542 393.770 C 1003.542 384.496 1011.023 377.014 1020.297 377.014 Z" clip-path="url(#51717ac6-f5b3-4f12-a1b4-5676ad45e88b)"/> <path fill="#412000" fill-rule="evenodd" stroke="#000000" stroke-width="6" stroke-opacity="0.000000" stroke-linecap="round" stroke-linejoin="round" d="M 1021.247 386.338 C 1026.107 386.658 1030.047 390.267 1030.047 395.137 C 1030.047 400.008 1026.107 403.617 1021.247 403.937 C 1015.754 404.299 1010.272 400.643 1010.272 395.137 C 1010.272 389.632 1015.754 385.976 1021.247 386.338 Z" clip-path="url(#51717ac6-f5b3-4f12-a1b4-5676ad45e88b)"/> <path fill="#753603" fill-rule="evenodd" stroke="#000000" stroke-width="6" stroke-opacity="0.000000" stroke-linecap="round" stroke-linejoin="round" d="M 1020.297 377.014 C 1029.572 377.014 1037.053 384.495 1037.053 393.770 C 1037.053 403.044 1029.572 410.525 1020.297 410.525 C 1011.024 410.525 1003.542 403.043 1003.542 393.770 C 1003.542 384.496 1011.023 377.014 1020.297 377.014 Z" clip-path="url(#51717ac6-f5b3-4f12-a1b4-5676ad45e88b)"/> <path fill="#412000" fill-rule="evenodd" stroke="#000000" stroke-width="6" stroke-opacity="0.000000" stroke-linecap="round" stroke-linejoin="round" d="M 1021.247 386.338 C 1026.107 386.658 1030.047 390.267 1030.047 395.137 C 1030.047 400.008 1026.107 403.617 1021.247 403.937 C 1015.754 404.299 1010.272 400.643 1010.272 395.137 C 1010.272 389.632 1015.754 385.976 1021.247 386.338 Z" clip-path="url(#51717ac6-f5b3-4f12-a1b4-5676ad45e88b)"/> <path fill="#753603" fill-rule="evenodd" stroke="#000000" stroke-width="6" stroke-opacity="0.000000" stroke-linecap="round" stroke-linejoin="round" d="M 969.174 577.159 C 978.448 577.159 985.929 584.641 985.929 593.915 C 985.929 603.189 978.448 610.670 969.174 610.670 C 959.900 610.670 952.418 603.189 952.418 593.915 C 952.418 584.641 959.900 577.159 969.174 577.159 Z" clip-path="url(#51717ac6-f5b3-4f12-a1b4-5676ad45e88b)"/> <path fill="#412000" fill-rule="evenodd" stroke="#000000" stroke-width="6" stroke-opacity="0.000000" stroke-linecap="round" stroke-linejoin="round" d="M 970.123 586.483 C 974.994 586.483 978.923 590.412 978.923 595.282 C 978.923 600.153 974.994 604.082 970.123 604.082 C 965.253 604.082 961.324 600.153 961.324 595.282 C 961.324 590.412 965.253 586.483 970.123 586.483 Z" clip-path="url(#51717ac6-f5b3-4f12-a1b4-5676ad45e88b)"/> <path fill="#753603" fill-rule="evenodd" stroke="#000000" stroke-width="6" stroke-opacity="0.000000" stroke-linecap="round" stroke-linejoin="round" d="M 969.174 577.159 C 978.448 577.159 985.929 584.641 985.929 593.915 C 985.929 603.189 978.448 610.670 969.174 610.670 C 959.900 610.670 952.418 603.189 952.418 593.915 C 952.418 584.641 959.900 577.159 969.174 577.159 Z" clip-path="url(#51717ac6-f5b3-4f12-a1b4-5676ad45e88b)"/> <path fill="#412000" fill-rule="evenodd" stroke="#000000" stroke-width="6" stroke-opacity="0.000000" stroke-linecap="round" stroke-linejoin="round" d="M 970.123 586.483 C 974.994 586.483 978.923 590.412 978.923 595.282 C 978.923 600.153 974.994 604.082 970.123 604.082 C 965.253 604.082 961.324 600.153 961.324 595.282 C 961.324 590.412 965.253 586.483 970.123 586.483 Z" clip-path="url(#51717ac6-f5b3-4f12-a1b4-5676ad45e88b)"/> <path fill="#753603" fill-rule="evenodd" stroke="#000000" stroke-width="6" stroke-opacity="0.000000" stroke-linecap="round" stroke-linejoin="round" d="M 1012.683 659.828 C 1021.958 659.828 1029.439 667.309 1029.439 676.583 C 1029.439 685.857 1021.958 693.339 1012.683 693.338 C 1003.410 693.338 995.928 685.857 995.928 676.583 C 995.928 667.309 1003.409 659.828 1012.683 659.828 Z" clip-path="url(#51717ac6-f5b3-4f12-a1b4-5676ad45e88b)"/> <path fill="#412000" fill-rule="evenodd" stroke="#000000" stroke-width="6" stroke-opacity="0.000000" stroke-linecap="round" stroke-linejoin="round" d="M 1013.633 669.151 C 1018.504 669.151 1022.433 673.081 1022.433 677.951 C 1022.433 682.821 1018.504 686.750 1013.633 686.750 C 1008.763 686.750 1004.834 682.821 1004.834 677.951 C 1004.834 673.081 1008.763 669.151 1013.633 669.151 Z" clip-path="url(#51717ac6-f5b3-4f12-a1b4-5676ad45e88b)"/> <path fill="#753603" fill-rule="evenodd" stroke="#000000" stroke-width="6" stroke-opacity="0.000000" stroke-linecap="round" stroke-linejoin="round" d="M 1012.683 659.828 C 1021.958 659.828 1029.439 667.309 1029.439 676.583 C 1029.439 685.857 1021.958 693.339 1012.683 693.338 C 1003.410 693.338 995.928 685.857 995.928 676.583 C 995.928 667.309 1003.409 659.828 1012.683 659.828 Z" clip-path="url(#51717ac6-f5b3-4f12-a1b4-5676ad45e88b)"/> <path fill="#412000" fill-rule="evenodd" stroke="#000000" stroke-width="6" stroke-opacity="0.000000" stroke-linecap="round" stroke-linejoin="round" d="M 1013.633 669.151 C 1018.504 669.151 1022.433 673.081 1022.433 677.951 C 1022.433 682.821 1018.504 686.750 1013.633 686.750 C 1008.763 686.750 1004.834 682.821 1004.834 677.951 C 1004.834 673.081 1008.763 669.151 1013.633 669.151 Z" clip-path="url(#51717ac6-f5b3-4f12-a1b4-5676ad45e88b)"/> <path fill="#753603" fill-rule="evenodd" stroke="#000000" stroke-width="6" stroke-opacity="0.000000" stroke-linecap="round" stroke-linejoin="round" d="M 1142.125 647.862 C 1151.399 647.862 1158.881 655.344 1158.881 664.618 C 1158.881 673.892 1151.399 681.373 1142.125 681.373 C 1132.851 681.373 1125.370 673.892 1125.370 664.618 C 1125.370 655.344 1132.851 647.862 1142.125 647.862 Z" clip-path="url(#51717ac6-f5b3-4f12-a1b4-5676ad45e88b)"/> <path fill="#412000" fill-rule="evenodd" stroke="#000000" stroke-width="6" stroke-opacity="0.000000" stroke-linecap="round" stroke-linejoin="round" d="M 1143.075 657.186 C 1147.946 657.186 1151.875 661.115 1151.875 665.986 C 1151.874 670.856 1147.946 674.785 1143.075 674.785 C 1138.205 674.785 1134.276 670.856 1134.276 665.986 C 1134.276 661.115 1138.205 657.186 1143.075 657.186 Z" clip-path="url(#51717ac6-f5b3-4f12-a1b4-5676ad45e88b)"/> <path fill="#753603" fill-rule="evenodd" stroke="#000000" stroke-width="6" stroke-opacity="0.000000" stroke-linecap="round" stroke-linejoin="round" d="M 1142.125 647.862 C 1151.399 647.862 1158.881 655.344 1158.881 664.618 C 1158.881 673.892 1151.399 681.373 1142.125 681.373 C 1132.851 681.373 1125.370 673.892 1125.370 664.618 C 1125.370 655.344 1132.851 647.862 1142.125 647.862 Z" clip-path="url(#51717ac6-f5b3-4f12-a1b4-5676ad45e88b)"/> <path fill="#412000" fill-rule="evenodd" stroke="#000000" stroke-width="6" stroke-opacity="0.000000" stroke-linecap="round" stroke-linejoin="round" d="M 1143.075 657.186 C 1147.946 657.186 1151.875 661.115 1151.875 665.986 C 1151.874 670.856 1147.946 674.785 1143.075 674.785 C 1138.205 674.785 1134.276 670.856 1134.276 665.986 C 1134.276 661.115 1138.205 657.186 1143.075 657.186 Z" clip-path="url(#51717ac6-f5b3-4f12-a1b4-5676ad45e88b)"/> <path fill="#753603" fill-rule="evenodd" stroke="#000000" stroke-width="6" stroke-opacity="0.000000" stroke-linecap="round" stroke-linejoin="round" d="M 1064.896 716.391 C 1074.170 716.390 1081.651 723.872 1081.651 733.146 C 1081.651 742.420 1074.170 749.901 1064.896 749.901 C 1055.622 749.901 1048.141 742.420 1048.141 733.146 C 1048.140 723.872 1055.622 716.391 1064.896 716.391 Z" clip-path="url(#51717ac6-f5b3-4f12-a1b4-5676ad45e88b)"/> <path fill="#412000" fill-rule="evenodd" stroke="#000000" stroke-width="6" stroke-opacity="0.000000" stroke-linecap="round" stroke-linejoin="round" d="M 1065.845 725.714 C 1070.716 725.714 1074.645 729.643 1074.645 734.514 C 1074.645 739.384 1070.716 743.313 1065.845 743.313 C 1060.975 743.313 1057.046 739.384 1057.046 734.514 C 1057.046 729.643 1060.975 725.714 1065.845 725.714 Z" clip-path="url(#51717ac6-f5b3-4f12-a1b4-5676ad45e88b)"/> <path fill="#753603" fill-rule="evenodd" stroke="#000000" stroke-width="6" stroke-opacity="0.000000" stroke-linecap="round" stroke-linejoin="round" d="M 1064.896 716.391 C 1074.170 716.390 1081.651 723.872 1081.651 733.146 C 1081.651 742.420 1074.170 749.901 1064.896 749.901 C 1055.622 749.901 1048.141 742.420 1048.141 733.146 C 1048.140 723.872 1055.622 716.391 1064.896 716.391 Z" clip-path="url(#51717ac6-f5b3-4f12-a1b4-5676ad45e88b)"/> <path fill="#412000" fill-rule="evenodd" stroke="#000000" stroke-width="6" stroke-opacity="0.000000" stroke-linecap="round" stroke-linejoin="round" d="M 1065.845 725.714 C 1070.716 725.714 1074.645 729.643 1074.645 734.514 C 1074.645 739.384 1070.716 743.313 1065.845 743.313 C 1060.975 743.313 1057.046 739.384 1057.046 734.514 C 1057.046 729.643 1060.975 725.714 1065.845 725.714 Z" clip-path="url(#51717ac6-f5b3-4f12-a1b4-5676ad45e88b)"/> <path fill="#753603" fill-rule="evenodd" stroke="#000000" stroke-width="6" stroke-opacity="0.000000" stroke-linecap="round" stroke-linejoin="round" d="M 798.397 480.349 C 807.672 480.349 815.153 487.831 815.153 497.105 C 815.153 506.379 807.671 513.860 798.397 513.860 C 789.124 513.860 781.642 506.379 781.642 497.105 C 781.642 487.831 789.123 480.350 798.397 480.349 Z" clip-path="url(#51717ac6-f5b3-4f12-a1b4-5676ad45e88b)"/> <path fill="#412000" fill-rule="evenodd" stroke="#000000" stroke-width="6" stroke-opacity="0.000000" stroke-linecap="round" stroke-linejoin="round" d="M 799.347 489.673 C 804.218 489.673 808.147 493.602 808.147 498.473 C 808.147 503.343 804.218 507.272 799.347 507.272 C 794.477 507.272 790.548 503.343 790.548 498.473 C 790.548 493.602 794.477 489.673 799.347 489.673 Z" clip-path="url(#51717ac6-f5b3-4f12-a1b4-5676ad45e88b)"/> <path fill="#753603" fill-rule="evenodd" stroke="#000000" stroke-width="6" stroke-opacity="0.000000" stroke-linecap="round" stroke-linejoin="round" d="M 798.397 480.349 C 807.672 480.349 815.153 487.831 815.153 497.105 C 815.153 506.379 807.671 513.860 798.397 513.860 C 789.124 513.860 781.642 506.379 781.642 497.105 C 781.642 487.831 789.123 480.350 798.397 480.349 Z" clip-path="url(#51717ac6-f5b3-4f12-a1b4-5676ad45e88b)"/> <path fill="#412000" fill-rule="evenodd" stroke="#000000" stroke-width="6" stroke-opacity="0.000000" stroke-linecap="round" stroke-linejoin="round" d="M 799.347 489.673 C 804.218 489.673 808.147 493.602 808.147 498.473 C 808.147 503.343 804.218 507.272 799.347 507.272 C 794.477 507.272 790.548 503.343 790.548 498.473 C 790.548 493.602 794.477 489.673 799.347 489.673 Z" clip-path="url(#51717ac6-f5b3-4f12-a1b4-5676ad45e88b)"/> <path fill="#753603" fill-rule="evenodd" stroke="#000000" stroke-width="6" stroke-opacity="0.000000" stroke-linecap="round" stroke-linejoin="round" d="M 926.752 643.512 C 936.026 643.511 943.507 650.993 943.507 660.267 C 943.507 669.541 936.026 677.022 926.752 677.022 C 917.478 677.022 909.997 669.541 909.997 660.267 C 909.996 650.993 917.478 643.512 926.752 643.512 Z" clip-path="url(#51717ac6-f5b3-4f12-a1b4-5676ad45e88b)"/> <path fill="#412000" fill-rule="evenodd" stroke="#000000" stroke-width="6" stroke-opacity="0.000000" stroke-linecap="round" stroke-linejoin="round" d="M 927.702 652.835 C 932.572 652.835 936.501 656.765 936.501 661.635 C 936.501 666.505 932.572 670.434 927.702 670.434 C 922.831 670.434 918.902 666.505 918.902 661.635 C 918.902 656.765 922.831 652.835 927.702 652.835 Z" clip-path="url(#51717ac6-f5b3-4f12-a1b4-5676ad45e88b)"/> <path fill="#753603" fill-rule="evenodd" stroke="#000000" stroke-width="6" stroke-opacity="0.000000" stroke-linecap="round" stroke-linejoin="round" d="M 926.752 643.512 C 936.026 643.511 943.507 650.993 943.507 660.267 C 943.507 669.541 936.026 677.022 926.752 677.022 C 917.478 677.022 909.997 669.541 909.997 660.267 C 909.996 650.993 917.478 643.512 926.752 643.512 Z" clip-path="url(#51717ac6-f5b3-4f12-a1b4-5676ad45e88b)"/> <path fill="#412000" fill-rule="evenodd" stroke="#000000" stroke-width="6" stroke-opacity="0.000000" stroke-linecap="round" stroke-linejoin="round" d="M 927.702 652.835 C 932.572 652.835 936.501 656.765 936.501 661.635 C 936.501 666.505 932.572 670.434 927.702 670.434 C 922.831 670.434 918.902 666.505 918.902 661.635 C 918.902 656.765 922.831 652.835 927.702 652.835 Z" clip-path="url(#51717ac6-f5b3-4f12-a1b4-5676ad45e88b)"/> <path fill="#753603" fill-rule="evenodd" stroke="#000000" stroke-width="6" stroke-opacity="0.000000" stroke-linecap="round" stroke-linejoin="round" d="M 1159.529 520.596 C 1168.803 520.596 1176.285 528.078 1176.285 537.352 C 1176.285 546.626 1168.803 554.107 1159.529 554.107 C 1150.255 554.107 1142.774 546.626 1142.774 537.352 C 1142.774 528.078 1150.255 520.596 1159.529 520.596 Z" clip-path="url(#51717ac6-f5b3-4f12-a1b4-5676ad45e88b)"/> <path fill="#412000" fill-rule="evenodd" stroke="#000000" stroke-width="6" stroke-opacity="0.000000" stroke-linecap="round" stroke-linejoin="round" d="M 1160.479 529.920 C 1165.349 529.920 1169.278 533.849 1169.278 538.720 C 1169.278 543.590 1165.349 547.519 1160.479 547.519 C 1155.609 547.519 1151.680 543.590 1151.680 538.720 C 1151.679 533.849 1155.608 529.920 1160.479 529.920 Z" clip-path="url(#51717ac6-f5b3-4f12-a1b4-5676ad45e88b)"/> <path fill="#753603" fill-rule="evenodd" stroke="#000000" stroke-width="6" stroke-opacity="0.000000" stroke-linecap="round" stroke-linejoin="round" d="M 1159.529 520.596 C 1168.803 520.596 1176.285 528.078 1176.285 537.352 C 1176.285 546.626 1168.803 554.107 1159.529 554.107 C 1150.255 554.107 1142.774 546.626 1142.774 537.352 C 1142.774 528.078 1150.255 520.596 1159.529 520.596 Z" clip-path="url(#51717ac6-f5b3-4f12-a1b4-5676ad45e88b)"/> <path fill="#412000" fill-rule="evenodd" stroke="#000000" stroke-width="6" stroke-opacity="0.000000" stroke-linecap="round" stroke-linejoin="round" d="M 1160.479 529.920 C 1165.349 529.920 1169.278 533.849 1169.278 538.720 C 1169.278 543.590 1165.349 547.519 1160.479 547.519 C 1155.609 547.519 1151.680 543.590 1151.680 538.720 C 1151.679 533.849 1155.608 529.920 1160.479 529.920 Z" clip-path="url(#51717ac6-f5b3-4f12-a1b4-5676ad45e88b)"/> <path fill="#753603" fill-rule="evenodd" stroke="#000000" stroke-width="6" stroke-opacity="0.000000" stroke-linecap="round" stroke-linejoin="round" d="M 923.488 728.355 C 932.763 728.355 940.244 735.837 940.244 745.111 C 940.244 754.385 932.762 761.866 923.488 761.866 C 914.215 761.866 906.733 754.385 906.733 745.111 C 906.733 735.837 914.214 728.355 923.488 728.355 Z" clip-path="url(#51717ac6-f5b3-4f12-a1b4-5676ad45e88b)"/> <path fill="#412000" fill-rule="evenodd" stroke="#000000" stroke-width="6" stroke-opacity="0.000000" stroke-linecap="round" stroke-linejoin="round" d="M 924.438 737.679 C 929.309 737.679 933.238 741.608 933.238 746.479 C 933.238 751.349 929.309 755.278 924.438 755.278 C 919.568 755.278 915.639 751.349 915.639 746.479 C 915.639 741.608 919.568 737.679 924.438 737.679 Z" clip-path="url(#51717ac6-f5b3-4f12-a1b4-5676ad45e88b)"/> <path fill="#753603" fill-rule="evenodd" stroke="#000000" stroke-width="6" stroke-opacity="0.000000" stroke-linecap="round" stroke-linejoin="round" d="M 923.488 728.355 C 932.763 728.355 940.244 735.837 940.244 745.111 C 940.244 754.385 932.762 761.866 923.488 761.866 C 914.215 761.866 906.733 754.385 906.733 745.111 C 906.733 735.837 914.214 728.355 923.488 728.355 Z" clip-path="url(#51717ac6-f5b3-4f12-a1b4-5676ad45e88b)"/> <path fill="#412000" fill-rule="evenodd" stroke="#000000" stroke-width="6" stroke-opacity="0.000000" stroke-linecap="round" stroke-linejoin="round" d="M 924.438 737.679 C 929.309 737.679 933.238 741.608 933.238 746.479 C 933.238 751.349 929.309 755.278 924.438 755.278 C 919.568 755.278 915.639 751.349 915.639 746.479 C 915.639 741.608 919.568 737.679 924.438 737.679 Z" clip-path="url(#51717ac6-f5b3-4f12-a1b4-5676ad45e88b)"/> <path fill="#753603" fill-rule="evenodd" stroke="#000000" stroke-width="6" stroke-opacity="0.000000" stroke-linecap="round" stroke-linejoin="round" d="M 723.343 505.368 C 732.617 505.368 740.099 512.849 740.099 522.123 C 740.099 531.397 732.617 538.879 723.343 538.878 C 714.070 538.878 706.588 531.397 706.588 522.123 C 706.588 512.849 714.069 505.368 723.343 505.368 Z" clip-path="url(#51717ac6-f5b3-4f12-a1b4-5676ad45e88b)"/> <path fill="#412000" fill-rule="evenodd" stroke="#000000" stroke-width="6" stroke-opacity="0.000000" stroke-linecap="round" stroke-linejoin="round" d="M 724.293 514.691 C 729.164 514.691 733.093 518.621 733.093 523.491 C 733.092 528.362 729.164 532.290 724.293 532.290 C 719.423 532.290 715.494 528.362 715.494 523.491 C 715.494 518.621 719.423 514.691 724.293 514.691 Z" clip-path="url(#51717ac6-f5b3-4f12-a1b4-5676ad45e88b)"/> <path fill="#753603" fill-rule="evenodd" stroke="#000000" stroke-width="6" stroke-opacity="0.000000" stroke-linecap="round" stroke-linejoin="round" d="M 723.343 505.368 C 732.617 505.368 740.099 512.849 740.099 522.123 C 740.099 531.397 732.617 538.879 723.343 538.878 C 714.070 538.878 706.588 531.397 706.588 522.123 C 706.588 512.849 714.069 505.368 723.343 505.368 Z" clip-path="url(#51717ac6-f5b3-4f12-a1b4-5676ad45e88b)"/> <path fill="#412000" fill-rule="evenodd" stroke="#000000" stroke-width="6" stroke-opacity="0.000000" stroke-linecap="round" stroke-linejoin="round" d="M 724.293 514.691 C 729.164 514.691 733.093 518.621 733.093 523.491 C 733.092 528.362 729.164 532.290 724.293 532.290 C 719.423 532.290 715.494 528.362 715.494 523.491 C 715.494 518.621 719.423 514.691 724.293 514.691 Z" clip-path="url(#51717ac6-f5b3-4f12-a1b4-5676ad45e88b)"/> <path fill="#fffbec" fill-rule="evenodd" fill-opacity="0.447059" stroke="#000000" stroke-width="6" stroke-opacity="0.000000" stroke-linecap="round" stroke-linejoin="round" d="M 1021.646 635.810 C 1019.354 633.991 1014.016 639.993 1012.094 637.786 C 1011.177 636.732 1013.571 634.307 1012.753 633.174 C 1009.299 628.394 996.475 641.121 993.319 636.139 C 990.930 632.368 1001.422 627.267 1000.236 622.963 C 999.092 618.813 988.587 619.659 988.048 615.387 C 987.756 613.073 991.871 611.323 992.660 609.129 C 994.599 603.735 988.127 593.531 992.660 590.024 C 994.225 588.813 997.523 591.324 999.248 590.353 C 1002.798 588.355 1000.493 578.469 1004.518 577.836 C 1009.399 577.069 1009.459 590.933 1014.400 591.012 C 1020.867 591.115 1020.592 570.795 1026.587 573.225 C 1029.735 574.500 1026.271 581.653 1028.234 584.424 C 1030.049 586.985 1035.768 586.720 1037.458 589.365 C 1040.224 593.696 1035.429 601.773 1037.458 606.493 C 1039.500 611.246 1050.045 613.180 1049.974 618.352 C 1049.911 622.965 1040.003 624.445 1038.775 628.892 C 1038.048 631.527 1042.531 635.711 1040.752 637.786 C 1039.142 639.662 1034.259 635.703 1032.517 637.456 C 1031.124 638.859 1034.235 643.067 1032.517 644.045 C 1030.822 645.008 1028.865 640.793 1026.917 640.750 C 1025.370 640.717 1023.689 642.365 1022.305 643.056 C 1022.305 643.056 1022.305 643.056 1022.305 643.056 C 1022.404 642.760 1023.357 637.166 1021.646 635.810 Z" clip-path="url(#51717ac6-f5b3-4f12-a1b4-5676ad45e88b)"/> <path fill="#fffbec" fill-rule="evenodd" fill-opacity="0.447059" stroke="#000000" stroke-width="6" stroke-opacity="0.000000" stroke-linecap="round" stroke-linejoin="round" d="M 1019.344 596.660 C 1027.095 596.660 1033.348 602.913 1033.348 610.664 C 1033.348 618.416 1027.095 624.669 1019.344 624.669 C 1011.592 624.669 1005.339 618.416 1005.339 610.664 C 1005.339 602.913 1011.592 596.659 1019.344 596.660 Z" clip-path="url(#51717ac6-f5b3-4f12-a1b4-5676ad45e88b)"/> <path fill="#ffffff" fill-rule="evenodd" fill-opacity="0.447059" stroke="#000000" stroke-width="6" stroke-opacity="0.000000" stroke-linecap="round" stroke-linejoin="round" d="M 1019.613 605.547 C 1022.595 605.547 1024.999 607.953 1024.999 610.934 C 1024.999 613.915 1022.594 616.320 1019.613 616.320 C 1016.632 616.320 1014.227 613.915 1014.227 610.934 C 1014.227 607.953 1016.632 605.547 1019.613 605.547 Z" clip-path="url(#51717ac6-f5b3-4f12-a1b4-5676ad45e88b)"/> <path fill="#fffbec" fill-rule="evenodd" fill-opacity="0.447059" stroke="#000000" stroke-width="6" stroke-opacity="0.000000" stroke-linecap="round" stroke-linejoin="round" d="M 1205.800 701.992 C 1202.414 699.306 1194.529 708.171 1191.691 704.911 C 1190.336 703.354 1193.872 699.773 1192.663 698.100 C 1187.562 691.038 1168.619 709.838 1163.957 702.478 C 1160.428 696.908 1175.927 689.374 1174.175 683.017 C 1172.485 676.886 1156.969 678.135 1156.172 671.826 C 1155.741 668.408 1161.818 665.823 1162.984 662.581 C 1165.849 654.615 1156.288 639.542 1162.984 634.362 C 1165.296 632.573 1170.168 636.282 1172.715 634.848 C 1177.960 631.896 1174.555 617.293 1180.500 616.359 C 1187.710 615.225 1187.799 635.705 1195.096 635.821 C 1204.650 635.974 1204.244 605.958 1213.099 609.547 C 1217.748 611.431 1212.632 621.997 1215.532 626.090 C 1218.212 629.873 1226.660 629.481 1229.155 633.389 C 1233.241 639.785 1226.158 651.716 1229.155 658.689 C 1232.172 665.708 1247.749 668.565 1247.644 676.205 C 1247.550 683.019 1232.916 685.205 1231.102 691.774 C 1230.027 695.666 1236.650 701.847 1234.021 704.911 C 1231.643 707.683 1224.431 701.834 1221.857 704.425 C 1219.799 706.496 1224.395 712.713 1221.857 714.156 C 1219.354 715.579 1216.464 709.352 1213.586 709.290 C 1211.301 709.241 1208.817 711.674 1206.774 712.696 C 1206.774 712.696 1206.774 712.696 1206.774 712.696 C 1206.920 712.258 1208.327 703.996 1205.800 701.992 Z" clip-path="url(#51717ac6-f5b3-4f12-a1b4-5676ad45e88b)"/> <path fill="#fffbec" fill-rule="evenodd" fill-opacity="0.447059" stroke="#000000" stroke-width="6" stroke-opacity="0.000000" stroke-linecap="round" stroke-linejoin="round" d="M 1202.400 644.163 C 1213.849 644.163 1223.085 653.400 1223.085 664.850 C 1223.085 676.299 1213.849 685.536 1202.400 685.536 C 1190.950 685.536 1181.713 676.299 1181.713 664.850 C 1181.713 653.400 1190.949 644.163 1202.400 644.163 Z" clip-path="url(#51717ac6-f5b3-4f12-a1b4-5676ad45e88b)"/> <path fill="#ffffff" fill-rule="evenodd" fill-opacity="0.447059" stroke="#000000" stroke-width="6" stroke-opacity="0.000000" stroke-linecap="round" stroke-linejoin="round" d="M 1202.797 657.291 C 1207.201 657.291 1210.753 660.844 1210.753 665.248 C 1210.753 669.651 1207.201 673.203 1202.797 673.203 C 1198.394 673.203 1194.841 669.651 1194.841 665.248 C 1194.841 660.844 1198.394 657.291 1202.797 657.291 Z" clip-path="url(#51717ac6-f5b3-4f12-a1b4-5676ad45e88b)"/> </g> <g id="Layer_4"> <path fill="#000000" fill-rule="evenodd" fill-opacity="0.317647" stroke="#000000" stroke-width="6" stroke-opacity="0.000000" stroke-linecap="round" stroke-linejoin="round" d="M 949.451 157.713 C 1157.250 157.713 1331.770 330.681 1331.770 554.460 C 1331.770 778.238 1157.250 951.206 949.451 951.206 C 741.652 951.206 567.132 778.238 567.132 554.460 C 567.132 330.681 741.652 157.713 949.451 157.713 Z" clip-path="url(#51717ac6-f5b3-4f12-a1b4-5676ad45e88b)"/> <path fill="#ffffff" fill-rule="evenodd" fill-opacity="0.101961" stroke="#000000" stroke-width="6" stroke-opacity="0.000000" stroke-linecap="round" stroke-linejoin="round" d="M 881.831 184.756 C 1048.253 184.756 1182.507 319.009 1182.506 485.431 C 1182.506 651.853 1048.253 786.107 881.831 786.107 C 715.409 786.107 581.156 651.853 581.155 485.431 C 581.155 319.009 715.409 184.756 881.831 184.756 Z" clip-path="url(#51717ac6-f5b3-4f12-a1b4-5676ad45e88b)"/> <path fill="#ffffff" fill-rule="evenodd" fill-opacity="0.066667" stroke="#000000" stroke-width="6" stroke-opacity="0.000000" stroke-linecap="round" stroke-linejoin="round" d="M 855.642 282.394 C 937.347 282.394 1003.258 348.305 1003.258 430.009 C 1003.258 511.713 937.346 577.624 855.642 577.624 C 773.938 577.624 708.027 511.713 708.027 430.009 C 708.027 348.305 773.938 282.394 855.642 282.394 Z" clip-path="url(#51717ac6-f5b3-4f12-a1b4-5676ad45e88b)"/> </g> </g> </svg>