<?xml version="1.0" encoding="UTF-8"?>
<svg width="379.66mm" height="380.97mm" version="1.1" viewBox="0 0 379.65866 380.97345" xmlns="http://www.w3.org/2000/svg">
 <defs>
  <filter id="a" x="-.4752" y="-.4752" width="1.9504" height="1.9504" color-interpolation-filters="sRGB">
   <feGaussianBlur stdDeviation="337.959"/>
  </filter>
 </defs>
 <g transform="translate(72.657 70.38)">
  <g transform="matrix(.94389 0 0 .94389 427.37 29.227)">
   <circle cx="-331.3" cy="100.45" r="171.16" fill="#b20604" fill-opacity=".98824"/>
   <circle cx="-331.3" cy="100.45" r="167.72" fill="#8b0000" fill-opacity=".98824"/>
   <circle cx="-331.3" cy="100.45" r="166.83" fill="#e40000"/>
   <g transform="matrix(3.9207 0 0 3.9207 -2445.1 17.191)">
    <path transform="matrix(.26458 0 0 .26458 0 87)" d="m2037.5-409.74a160.31 160.31 0 0 0 -22.334 1.7363c-2.847 4.526-4.8118 9.482-5.1621 14.611-0.4233 6.1994 3.0266 12.633 7.2812 17.162 5.308 5.65 13.517 7.747 20.801 10.4 11.891 4.3315 24.4 10.674 36.922 8.8418 9.914-1.4506 26.606-5.0807 26.002-15.082-0.7165-11.86-20.904-13.289-32.762-14.041-8.8161-0.55877-17.301 10.613-25.482 7.2812-2.5887-1.0541-5.0484-4.631-4.1602-7.2812 0.8391-2.5035 4.8371-2.1205 7.2813-3.1191 6.1983-2.5326 12.104-6.2526 18.721-7.2812 10.984-1.7077 23.016-2.1802 33.283 2.0801 11.116 4.6125 23.476 12.428 27.041 23.922 2.1175 6.8263-1.084 14.959-5.2012 20.801-3.6003 5.1089-9.5318 8.902-15.6 10.4-16.243 4.0112-33.753-0.90376-49.924-5.1992-12.452-3.3077-24.021-9.4902-35.363-15.602-11.259-6.067-22.722-12.26-32.242-20.801-4.6656-4.1857-7.9799-10.144-11.172-16.152a160.31 160.31 0 0 0 -37.047 21.676c3.9193 3.7541 7.8027 7.4454 10.777 11.117 4.6295 5.7145 10.242 10.566 15.602 15.602 5.7286 5.3817 10.328 12.82 17.68 15.6 7.7828 2.9427 16.642 0 24.963 0 11.441 0 22.889-0.40782 34.322 0 9.7259 0.34691 19.511 0.54743 29.121 2.0801 5.6464 0.90046 10.981 3.3482 16.641 4.1602 8.5862 1.2317 17.786 3.8227 26.002 1.041 11.31-3.8292 20.619-13.166 27.562-22.881 3.3146-4.6377 6.4367-9.9016 8.2598-15.42a160.31 160.31 0 0 0 -111.81 -45.652zm112.34 46.145c-0.6213 3.1227-0.9307 6.587-2.0723 9.209-1.6022 3.68-3.2145 7.3631-5.0742 10.92-2.418 4.6245-11.44 9.6889-7.8945 13.518 5.3945 5.8247 16.096-4.5159 21.428-10.398 2.3413-2.5833 4.72-5.7188 6.5508-9.0703a160.31 160.31 0 0 0 -12.938 -14.178zm-236.16 12.473a160.31 160.31 0 0 0 -14.357 20.736c3.8323 1.333 7.9005 2.6249 10.309 5.1191 3.2419 3.3578 5.9521 7.4868 7.2812 11.961 3.2103 10.806-3.5955 23.527 1.0391 33.803 3.2268 7.1545 10.915 11.37 17.162 16.121 8.235 6.2624 18.974 9.0455 26.522 16.121 4.6311 4.3414 5.4619 12.36 10.92 15.602 16.048 9.5298 37.005 5.2856 55.645 6.2402 18.524 0.9487 37.102-0.0487 55.644-0.52149 8.3251-0.21229 17.056 1.5808 24.961-1.0391 8.7626-2.9041 15.513-10.04 22.881-15.602 15.128-11.419 29.939-23.351 43.684-36.402 5.536-5.2568 10.123-11.46 15.377-16.99a160.31 160.31 0 0 0 -3.3398 -10.051c-8.0382 5.6427-17.061 14.199-24.518 17.16-18.954 7.5278-39.409 11.311-57.725 20.281-5.7432 2.8128-10.042 8.4165-16.121 10.4-11.39 3.7168-24.584-1.903-35.883 2.082-5.625 1.984-15.537 4.5161-14.561 10.4 1.1848 7.1415 13.576 5.8178 20.803 6.2402 8.9618 0.52391 18.637-0.38922 26.522-4.6816 2.9086-1.5835 8.2085-4.3012 6.7597-7.2793-3.6525-7.5081-23.24 10.25-24.961 2.0801-1.096-5.2033 9.8536-4.2217 15.08-5.2012 4.4331-0.83077 9.8369-3.1208 13.522-0.51953 2.3738 1.6759 3.5975 5.5913 2.5996 8.3203-1.5526 4.2453-7.2394 5.6152-11.441 7.2812-6.8897 2.7316-14.45 3.603-21.84 4.1602-9.1678 0.6912-18.73 1.5108-27.562-1.041-3.6561-1.0563-7.5521-2.7107-9.8808-5.7207-1.9816-2.5613-3.81-6.3557-2.5997-9.3594 1.6557-4.1086 7.4553-4.8258 11.44-6.7617 3.0112-1.4631 10.104-0.37435 9.3613-3.6387-1.0033-4.4075-9.0925 1.9432-13.522 1.0391-4.7857-0.97698-8.1597-6.1035-13-6.7598-10.713-1.4527-20.971 5.6268-31.723 6.7598-5.1717 0.54496-10.755 1.8852-15.602 0-7.8897-3.069-13.25-10.7-18.721-17.16-5.3441-6.3112-8.4452-14.274-13.522-20.803-1.8824-2.421-4.7381-4.086-6.2402-6.7598-5.563-9.9021-3.4257-23.077-9.3594-32.762-2.8311-4.6208-6.3222-10.396-11.033-12.855zm110.01 25.477c-2.094 0.0399-4.0168 0.55453-5.6172 1.9375-2.3777 2.0546-2.7248 6.6524-1.1289 9.3594 2.5754 4.3683 9.0705 5.0555 14.098 5.7207 5.6319 0.74524 11.246-1.7328 16.916-2.0801 3.1892-0.19534 6.3975 0.20911 9.5859 0 5.2968-0.3474 14.705 3.1167 15.787-2.0801 1.0281-4.9387-8.1957-6.1662-12.969-7.7988-6.984-2.3888-14.628-2.0732-21.99-2.6016-4.6414-0.33311-10.075-2.5448-14.682-2.457zm170.03 41.162c-25.668 0.73654-42.225 55.673-71.018 66.705-4.3555 1.6688-9.4002-0.18448-13.973 0.73633-13.151 2.6484-25.282 8.9826-37.875 13.605-13.764 5.0525-27.017 11.673-41.186 15.443-5.1604 1.3732-10.475 2.4095-15.812 2.5742-12.313 0.38-24.767-0.91345-36.772-3.6777-16.93-3.8986-33.268-10.449-48.906-18.018-9.3096-4.5059-17.302-20.955-26.477-16.18-1.743 0.90725-0.7372 3.9529-0.3672 5.8828 0.9187 4.7926 2.923 9.6702 6.252 13.238 14.375 15.408 35.175 24.2 55.158 30.889 5.1616 1.7278 10.74 2.0081 16.18 2.207 7.8547 0.28725 15.876 0.30113 23.533-1.4707 7.4958-1.7344 13.899-6.8254 21.328-8.8262 6.2101-1.6725 12.693-2.37 19.121-2.5742 8.7198-0.27697 17.426 0.97227 26.107 1.8398 13.282 1.3274 26.369 4.8615 39.715 5.1465 9.9631 0.21277 20.381 0.72386 29.785-2.5723 8.3414-2.9235 16.728-7.661 22.062-14.709 2.6433-3.4927 7.3666-9.6487 4.0449-12.504-1.8706-1.608-4.4029 2.2274-6.6191 3.3106-8.1766 3.9964-16.081 8.6659-24.637 11.768-5.5898 2.0264-11.4 5.2725-17.283 4.4121-2.8288-0.41371-6.5078-1.6812-7.3535-4.4121-0.9573-3.0912 1.7797-6.5152 4.0449-8.8262 5.526-5.6377 14.817-5.8334 21.328-10.297 17.167-11.768 29.512-29.444 45.596-42.654 5.0316-4.1328 12.022-6.4503 17.359-10.17a160.31 160.31 0 0 0 -3.3379 -20.867zm-233.67 0.93165c-0.4975 5e-3 -1.0086 0.21059-1.5352 0.66796-4.5568 3.9575 5.0883 11.961 10.402 14.822 5.2677 2.8365 17.147 6.4495 17.941 0.51953 0.7341-5.4798-11.256-1.2745-16.121-3.9004-4.2968-2.319-7.2052-12.141-10.688-12.109zm-78.539 70.266a160.31 160.31 0 0 0 10.369 30.443c7.4514 3.6416 16.748 4.6646 23.797 9.1914 11.992 7.7012 20.139 20.613 32.359 27.947 19.83 11.901 42.701 17.927 64.719 25.004 10.246 3.2931 20.553 9.2198 31.256 8.0898 15.809-1.6691 27.772-15.739 42.654-21.328 14.111-5.2992 29.836-5.6259 43.76-11.398 10.506-4.3555 19.369-11.957 29.418-17.283 4.8234-2.5567 10.363-4.1599 15.82-5.8418a160.31 160.31 0 0 0 17.805 -44.641c-12.18 3.9497-23.205 27.35-35.832 35.773-12.837 8.5638-26.462 15.911-40.082 23.166-16.498 8.7886-32.059 20.913-50.377 24.639-13.472 2.7402-27.589-0.17351-41.186-2.207-18.611-2.7835-37.303-6.6516-54.789-13.605-10.2-4.0563-19.768-9.773-28.682-16.18-10.712-7.6997-18.878-18.543-29.418-26.477-9.8082-7.3832-21.456-25.333-31.592-25.293zm161.45 35.91c-0.6279-0.0113-1.2585 3e-3 -1.8926 0.0469-7.723 0.53608-21.581 1.456-21.328 9.1934 0.1913 5.851 11.152 3.6094 16.547 5.8828 6.6681 2.8101 12.331 8.5117 19.49 9.5606 5.9017 0.86458 11.792-1.822 17.65-2.9414 12.563-2.4003 37.998 4.6907 37.506-8.0898-0.5231-13.598-27.118-2.7862-40.449-5.5156-9.3405-1.9124-18.105-7.9675-27.523-8.1367z" fill="#ec412c"/>
    <path transform="matrix(.26458 0 0 .26458 0 87)" d="m1934.1-371.72a160.31 160.31 0 0 0 -5.2109 4.5762c3.4226 3.889 6.6688 7.8495 8.2675 12.678 2.0557 6.2083-1.1275 13.255 0.3926 19.615 3.1015 12.978 7.1924 27.444 17.381 36.061 5.2593 4.4478 13.625 2.8008 19.846 5.7578 8.2559 3.9243 13.927 12.578 22.555 15.598 19.204 6.7208 40.788 7.2481 60.898 4.1602 13.166-2.0216 24.125-12.089 37.215-14.559 8.496-1.6028 18.32 4.0901 25.937 0 6.5949-3.5412 7.0886-13.449 12.404-18.719 8.9855-8.9085 21.932-12.805 31.822-20.697 2.2687-1.8103 5.3221-3.6798 8.6172-5.5977a160.31 160.31 0 0 0 -2.3848 -3.9688c-1.2609 1.2504-2.5382 2.3008-3.83 3.0352-11.6 6.5935-25.094 9.0778-37.608 13.709-10.168 3.7633-20.069 8.3081-30.449 11.439-10.341 3.1196-20.778 7.0217-31.576 7.2793-19.477 0.46459-38.566-5.8688-57.514-10.4-14.119-3.3767-29.638-4.4397-41.727-12.479-12.328-8.1979-19.222-22.54-28.191-34.318-2.5597-3.3616-4.7635-8.0682-6.8457-13.17zm176.36 1.6172c-0.3342 0.0123-0.6593 0.0696-0.9707 0.17578-3.6091 1.2305-2.7884 7.0996-4.3105 10.596-1.0204 2.3436-2.0461 4.6899-3.2305 6.9551-1.5399 2.9451-7.2855 6.1711-5.0273 8.6094 3.4354 3.7094 10.249-2.8768 13.644-6.623 3.7137-4.0976 7.6158-10.36 5.7461-15.564-0.7786-2.1673-3.5118-4.2345-5.8516-4.1484zm-221.68 61.131a160.31 160.31 0 0 0 -7.2168 23.041c5.5479 3.6855 11.089 7.4692 14.254 11.887 6.2956 8.7877 10.511 18.894 15.812 28.314 4.6306 8.2278 7.3373 17.922 13.973 24.639 8.3772 8.4797 19.929 13.33 30.889 18.018 7.7401 3.3107 15.944 5.7409 24.27 6.9863 7.2745 1.0881 14.715 0.7147 22.062 0.36914 11.087-0.52144 22.321-1.0125 33.096-3.6777 10.738-2.6563 20.397-8.6273 30.889-12.135 6.5152-2.1782 15.106-0.55205 19.856-5.5156 1.1296-1.1816 2.1545-3.5284 1.1035-4.7812-7.5729-9.0271-23.632 0.20241-35.301 1.8398-14.575 2.0453-28.306 9.7476-43.023 9.9277-4.8796 0.0597-9.6899-1.4613-14.34-2.9414-8.4202-2.6801-16.363-6.718-24.27-10.664-11.196-5.5878-22.43-11.28-32.728-18.387-8.8094-6.0791-18.41-11.886-24.637-20.592-4.966-6.9431-5.1596-16.379-9.1934-23.902-4.2794-7.9811-7.5906-18.178-15.494-22.426zm-10.137 39.15a160.31 160.31 0 0 0 -1.211 15.367c0.1183 0.0889 0.2532 0.17828 0.3672 0.26758 5.0998 3.9925 12.275 5.0407 16.914 9.5605 3.5833 3.4915 4.2939 9.2278 7.7226 12.871 3.565 3.7881 8.4753 11.609 12.869 8.8242 3.2511-2.0602-0.2247-7.904-1.8379-11.398-3.1708-6.8683-9.2636-12.032-14.709-17.283-6.292-6.0677-12.095-17.569-20.115-18.209zm318.88 12.486c-6.8182 2.2907-11.417 9.8084-16.354 15.283-3.5977 3.9898-5.2451 9.5952-9.1934 13.238-8.9614 8.2688-22.967 9.8006-31.625 18.387-2.7315 2.7088-7.6751 6.5238-5.8828 9.9277 1.717 3.261 7.466 1.6694 11.031 0.73632 6.9397-1.8162 11.98-15.642 18.018-11.768 2.0862 1.3389-0.6745 4.9117-1.1015 7.3535-0.6461 3.694-2.3692 7.2847-2.2071 11.031 0.1323 3.0615-0.1401 7.404 2.5742 8.8262 3.0901 1.619 7.2406-1.0841 9.9278-3.3086 3.6775-3.0443 5.3136-8.0324 6.9863-12.504 1.8866-5.0435 2.6491-10.466 3.3105-15.811 0.3754-3.0436-0.6605-6.3039 0.3672-9.1934 1.8485-5.1968 6.3403-9.0502 9.9297-13.238 1.0778-1.2576 2.535-2.3817 4.1192-3.4551a160.31 160.31 0 0 0 0.3808 -7.6016 160.31 160.31 0 0 0 -0.2812 -7.9043zm-211.41 95.086c-4.2856 0.1795-7.5947 1.5984-8.6582 5.5078-0.6961 2.5587 4.1598 3.4226 6.6192 4.4141 7.0465 2.8407 14.922 2.8893 22.432 4.0449 5.7401 0.88335 11.557 1.2363 17.283 2.2051 8.7702 1.4837 17.255 4.646 26.107 5.5156 9.8816 0.97082 19.857-0.23396 29.785-0.36719 8.4576-0.1135 17.33 2.25 25.373-0.36719 4.8509-1.5784 14.398-4.0905 12.502-8.8262-2.4873-6.2117-13.208 2.1798-19.856 2.9434-13.44 1.5437-27.002 4.7872-40.449 3.3086-16.456-1.8094-31.006-12.695-47.438-14.709-6.7023-0.82148-16.559-3.9691-23.701-3.6699zm-81.209 2.5664c-0.021-8.8e-4 -0.041 3e-3 -0.062 2e-3a160.31 160.31 0 0 0 132.66 70.561 160.31 160.31 0 0 0 73.211 -17.727c-1.3664 0.5096-2.7569 0.92991-4.1836 1.2188-7.6887 1.5566-15.985-2.1364-23.533 0-5.4008 1.5287-8.8513 7.66-14.342 8.8262-15.363 3.2632-31.569-2.0478-46.701-6.252-3.8614-1.0728-7.5114-2.8634-11.031-4.7793-5.4344-2.9579-9.6942-8.0102-15.443-10.297-4.7373-1.8842-9.9782-2.6327-15.076-2.5742-4.495 0.0516-8.8157 3.3796-13.238 2.5742-12.182-2.2184-20.891-13.315-31.625-19.488-9.6946-5.5754-21.56-21.686-30.631-22.064zm247.92 21.346c-2.4566 1.5476-4.9462 2.9792-7.3223 3.293-11.318 1.4944-23.298-5.2362-34.197-1.8398-6.5072 2.0278-10.28 9.0884-16.18 12.502-9.1811 5.3125-19.235 9.1653-29.418 12.135-8.7252 2.5443-27.556-4.2794-26.844 4.7812 0.4999 6.3554 12.756 0.71475 19.121 0.36719 11.477-0.62665 22.953-2.0384 34.199-4.4121 12.257-2.5871 23.838-7.8088 36.035-10.664 2.4897-0.58279 5.1372-0.80502 7.836-0.89843a160.31 160.31 0 0 0 16.77 -15.264z" fill="#f10f0f"/>
   </g>
   <g transform="matrix(.22198 -.085604 .11784 .26513 -291.49 9.6726)" stroke="#b50000">
    <circle transform="matrix(1.2895 0 0 1.2895 531.33 9.0409)" cx="-1045.7" cy="235.22" r="102.86" fill="#d00c0c" stroke-width="3.3566"/>
    <circle transform="matrix(1.0833 0 0 1.0833 315.71 57.541)" cx="-1045.7" cy="235.22" r="102.86" fill="#d50d0d" stroke-width="3.9955"/>
    <path d="m-817.16 200.94c-61.54 0-111.41 49.897-111.41 111.44 0 5.4882 0.38983 10.881 1.1562 16.156 8.0086-42.516 54.312-75.125 110.25-75.125 55.925 0 102.26 32.592 110.28 75.094 0.7634-5.2656 1.1562-10.648 1.1562-16.125 0-61.54-49.897-111.44-111.44-111.44z" fill="#b40c0c" stroke-width="4.3285"/>
    <path d="m-902.62 383.84c20.44 24.419 51.133 39.938 85.469 39.938s65.06-15.518 85.5-39.938c-22.412 18.5-52.476 29.812-85.5 29.812s-63.056-11.313-85.469-29.812z" fill="#c40707" stroke-width="4.3285"/>
    <path d="m-817.16 180.72c-72.698 0-131.62 58.958-131.62 131.66s58.927 131.62 131.62 131.62c23.394 0 45.368-6.1125 64.406-16.812-16.244 6.7573-34.219 10.531-53.125 10.531-72.586 0-131.44-55.347-131.44-123.59s58.852-123.56 131.44-123.56c27.22 0 52.493 7.7698 73.469 21.094-22.898-19.286-52.468-30.938-84.75-30.938z" fill="#d15b5b" opacity=".6788" stroke-width="4.3285"/>
   </g>
   <g transform="matrix(-.058332 .12026 -.16381 -.057589 -369.04 360.59)" stroke="#b50000">
    <circle transform="matrix(1.2895 0 0 1.2895 531.33 9.0409)" cx="-1045.7" cy="235.22" r="102.86" fill="#d00c0c" stroke-width="3.3566"/>
    <circle transform="matrix(1.0833 0 0 1.0833 315.71 57.541)" cx="-1045.7" cy="235.22" r="102.86" fill="#d50d0d" stroke-width="3.9955"/>
    <path d="m-817.16 200.94c-61.54 0-111.41 49.897-111.41 111.44 0 5.4882 0.38983 10.881 1.1562 16.156 8.0086-42.516 54.312-75.125 110.25-75.125 55.925 0 102.26 32.592 110.28 75.094 0.7634-5.2656 1.1562-10.648 1.1562-16.125 0-61.54-49.897-111.44-111.44-111.44z" fill="#b40c0c" stroke-width="4.3285"/>
    <path d="m-902.62 383.84c20.44 24.419 51.133 39.938 85.469 39.938s65.06-15.518 85.5-39.938c-22.412 18.5-52.476 29.812-85.5 29.812s-63.056-11.313-85.469-29.812z" fill="#c40707" stroke-width="4.3285"/>
    <path d="m-817.16 180.72c-72.698 0-131.62 58.958-131.62 131.66s58.927 131.62 131.62 131.62c23.394 0 45.368-6.1125 64.406-16.812-16.244 6.7573-34.219 10.531-53.125 10.531-72.586 0-131.44-55.347-131.44-123.59s58.852-123.56 131.44-123.56c27.22 0 52.493 7.7698 73.469 21.094-22.898-19.286-52.468-30.938-84.75-30.938z" fill="#d15b5b" opacity=".6788" stroke-width="4.3285"/>
   </g>
   <g transform="matrix(.10203 -.0025959 .0094013 .12412 -303.58 107.01)" stroke="#b50000">
    <circle transform="matrix(1.2895 0 0 1.2895 531.33 9.0409)" cx="-1045.7" cy="235.22" r="102.86" fill="#d00c0c" stroke-width="3.3566"/>
    <circle transform="matrix(1.0833 0 0 1.0833 315.71 57.541)" cx="-1045.7" cy="235.22" r="102.86" fill="#d50d0d" stroke-width="3.9955"/>
    <path d="m-817.16 200.94c-61.54 0-111.41 49.897-111.41 111.44 0 5.4882 0.38983 10.881 1.1562 16.156 8.0086-42.516 54.312-75.125 110.25-75.125 55.925 0 102.26 32.592 110.28 75.094 0.7634-5.2656 1.1562-10.648 1.1562-16.125 0-61.54-49.897-111.44-111.44-111.44z" fill="#b40c0c" stroke-width="4.3285"/>
    <path d="m-902.62 383.84c20.44 24.419 51.133 39.938 85.469 39.938s65.06-15.518 85.5-39.938c-22.412 18.5-52.476 29.812-85.5 29.812s-63.056-11.313-85.469-29.812z" fill="#c40707" stroke-width="4.3285"/>
    <path d="m-817.16 180.72c-72.698 0-131.62 58.958-131.62 131.66s58.927 131.62 131.62 131.62c23.394 0 45.368-6.1125 64.406-16.812-16.244 6.7573-34.219 10.531-53.125 10.531-72.586 0-131.44-55.347-131.44-123.59s58.852-123.56 131.44-123.56c27.22 0 52.493 7.7698 73.469 21.094-22.898-19.286-52.468-30.938-84.75-30.938z" fill="#d15b5b" opacity=".6788" stroke-width="4.3285"/>
   </g>
   <g transform="matrix(.076672 .020577 -.020374 .094645 -363.99 92.289)" stroke="#b50000">
    <circle transform="matrix(1.2895 0 0 1.2895 531.33 9.0409)" cx="-1045.7" cy="235.22" r="102.86" fill="#d00c0c" stroke-width="3.3566"/>
    <circle transform="matrix(1.0833 0 0 1.0833 315.71 57.541)" cx="-1045.7" cy="235.22" r="102.86" fill="#d50d0d" stroke-width="3.9955"/>
    <path d="m-817.16 200.94c-61.54 0-111.41 49.897-111.41 111.44 0 5.4882 0.38983 10.881 1.1562 16.156 8.0086-42.516 54.312-75.125 110.25-75.125 55.925 0 102.26 32.592 110.28 75.094 0.7634-5.2656 1.1562-10.648 1.1562-16.125 0-61.54-49.897-111.44-111.44-111.44z" fill="#b40c0c" stroke-width="4.3285"/>
    <path d="m-902.62 383.84c20.44 24.419 51.133 39.938 85.469 39.938s65.06-15.518 85.5-39.938c-22.412 18.5-52.476 29.812-85.5 29.812s-63.056-11.313-85.469-29.812z" fill="#c40707" stroke-width="4.3285"/>
    <path d="m-817.16 180.72c-72.698 0-131.62 58.958-131.62 131.66s58.927 131.62 131.62 131.62c23.394 0 45.368-6.1125 64.406-16.812-16.244 6.7573-34.219 10.531-53.125 10.531-72.586 0-131.44-55.347-131.44-123.59s58.852-123.56 131.44-123.56c27.22 0 52.493 7.7698 73.469 21.094-22.898-19.286-52.468-30.938-84.75-30.938z" fill="#d15b5b" opacity=".6788" stroke-width="4.3285"/>
   </g>
   <g transform="matrix(.13467 -.10775 .13947 .15744 -173.65 -124.79)" stroke="#b50000">
    <circle transform="matrix(1.2895 0 0 1.2895 531.33 9.0409)" cx="-1045.7" cy="235.22" r="102.86" fill="#d00c0c" stroke-width="3.3566"/>
    <circle transform="matrix(1.0833 0 0 1.0833 315.71 57.541)" cx="-1045.7" cy="235.22" r="102.86" fill="#d50d0d" stroke-width="3.9955"/>
    <path d="m-817.16 200.94c-61.54 0-111.41 49.897-111.41 111.44 0 5.4882 0.38983 10.881 1.1562 16.156 8.0086-42.516 54.312-75.125 110.25-75.125 55.925 0 102.26 32.592 110.28 75.094 0.7634-5.2656 1.1562-10.648 1.1562-16.125 0-61.54-49.897-111.44-111.44-111.44z" fill="#b40c0c" stroke-width="4.3285"/>
    <path d="m-902.62 383.84c20.44 24.419 51.133 39.938 85.469 39.938s65.06-15.518 85.5-39.938c-22.412 18.5-52.476 29.812-85.5 29.812s-63.056-11.313-85.469-29.812z" fill="#c40707" stroke-width="4.3285"/>
    <path d="m-817.16 180.72c-72.698 0-131.62 58.958-131.62 131.66s58.927 131.62 131.62 131.62c23.394 0 45.368-6.1125 64.406-16.812-16.244 6.7573-34.219 10.531-53.125 10.531-72.586 0-131.44-55.347-131.44-123.59s58.852-123.56 131.44-123.56c27.22 0 52.493 7.7698 73.469 21.094-22.898-19.286-52.468-30.938-84.75-30.938z" fill="#d15b5b" opacity=".6788" stroke-width="4.3285"/>
   </g>
   <g transform="matrix(-.18577 -.14863 -.19239 .21718 -514.76 -177.62)" stroke="#b50000">
    <circle transform="matrix(1.2895 0 0 1.2895 531.33 9.0409)" cx="-1045.7" cy="235.22" r="102.86" fill="#d00c0c" stroke-width="3.3566"/>
    <circle transform="matrix(1.0833 0 0 1.0833 315.71 57.541)" cx="-1045.7" cy="235.22" r="102.86" fill="#d50d0d" stroke-width="3.9955"/>
    <path d="m-817.16 200.94c-61.54 0-111.41 49.897-111.41 111.44 0 5.4882 0.38983 10.881 1.1562 16.156 8.0086-42.516 54.312-75.125 110.25-75.125 55.925 0 102.26 32.592 110.28 75.094 0.7634-5.2656 1.1562-10.648 1.1562-16.125 0-61.54-49.897-111.44-111.44-111.44z" fill="#b40c0c" stroke-width="4.3285"/>
    <path d="m-902.62 383.84c20.44 24.419 51.133 39.938 85.469 39.938s65.06-15.518 85.5-39.938c-22.412 18.5-52.476 29.812-85.5 29.812s-63.056-11.313-85.469-29.812z" fill="#c40707" stroke-width="4.3285"/>
    <path d="m-817.16 180.72c-72.698 0-131.62 58.958-131.62 131.66s58.927 131.62 131.62 131.62c23.394 0 45.368-6.1125 64.406-16.812-16.244 6.7573-34.219 10.531-53.125 10.531-72.586 0-131.44-55.347-131.44-123.59s58.852-123.56 131.44-123.56c27.22 0 52.493 7.7698 73.469 21.094-22.898-19.286-52.468-30.938-84.75-30.938z" fill="#d15b5b" opacity=".6788" stroke-width="4.3285"/>
   </g>
   <g transform="matrix(.083389 -.066714 .086357 .097488 -210.45 -25.85)" stroke="#b50000">
    <circle transform="matrix(1.2895 0 0 1.2895 531.33 9.0409)" cx="-1045.7" cy="235.22" r="102.86" fill="#d00c0c" stroke-width="3.3566"/>
    <circle transform="matrix(1.0833 0 0 1.0833 315.71 57.541)" cx="-1045.7" cy="235.22" r="102.86" fill="#d50d0d" stroke-width="3.9955"/>
    <path d="m-817.16 200.94c-61.54 0-111.41 49.897-111.41 111.44 0 5.4882 0.38983 10.881 1.1562 16.156 8.0086-42.516 54.312-75.125 110.25-75.125 55.925 0 102.26 32.592 110.28 75.094 0.7634-5.2656 1.1562-10.648 1.1562-16.125 0-61.54-49.897-111.44-111.44-111.44z" fill="#b40c0c" stroke-width="4.3285"/>
    <path d="m-902.62 383.84c20.44 24.419 51.133 39.938 85.469 39.938s65.06-15.518 85.5-39.938c-22.412 18.5-52.476 29.812-85.5 29.812s-63.056-11.313-85.469-29.812z" fill="#c40707" stroke-width="4.3285"/>
    <path d="m-817.16 180.72c-72.698 0-131.62 58.958-131.62 131.66s58.927 131.62 131.62 131.62c23.394 0 45.368-6.1125 64.406-16.812-16.244 6.7573-34.219 10.531-53.125 10.531-72.586 0-131.44-55.347-131.44-123.59s58.852-123.56 131.44-123.56c27.22 0 52.493 7.7698 73.469 21.094-22.898-19.286-52.468-30.938-84.75-30.938z" fill="#d15b5b" opacity=".6788" stroke-width="4.3285"/>
   </g>
   <g transform="matrix(-.083389 -.066714 -.086357 .097488 -422.13 -119.22)" stroke="#b50000">
    <circle transform="matrix(1.2895 0 0 1.2895 531.33 9.0409)" cx="-1045.7" cy="235.22" r="102.86" fill="#d00c0c" stroke-width="3.3566"/>
    <circle transform="matrix(1.0833 0 0 1.0833 315.71 57.541)" cx="-1045.7" cy="235.22" r="102.86" fill="#d50d0d" stroke-width="3.9955"/>
    <path d="m-817.16 200.94c-61.54 0-111.41 49.897-111.41 111.44 0 5.4882 0.38983 10.881 1.1562 16.156 8.0086-42.516 54.312-75.125 110.25-75.125 55.925 0 102.26 32.592 110.28 75.094 0.7634-5.2656 1.1562-10.648 1.1562-16.125 0-61.54-49.897-111.44-111.44-111.44z" fill="#b40c0c" stroke-width="4.3285"/>
    <path d="m-902.62 383.84c20.44 24.419 51.133 39.938 85.469 39.938s65.06-15.518 85.5-39.938c-22.412 18.5-52.476 29.812-85.5 29.812s-63.056-11.313-85.469-29.812z" fill="#c40707" stroke-width="4.3285"/>
    <path d="m-817.16 180.72c-72.698 0-131.62 58.958-131.62 131.66s58.927 131.62 131.62 131.62c23.394 0 45.368-6.1125 64.406-16.812-16.244 6.7573-34.219 10.531-53.125 10.531-72.586 0-131.44-55.347-131.44-123.59s58.852-123.56 131.44-123.56c27.22 0 52.493 7.7698 73.469 21.094-22.898-19.286-52.468-30.938-84.75-30.938z" fill="#d15b5b" opacity=".6788" stroke-width="4.3285"/>
   </g>
   <g transform="matrix(-.13232 .021874 .0063377 .14623 -586.74 54.275)" stroke="#b50000">
    <circle transform="matrix(1.2895 0 0 1.2895 531.33 9.0409)" cx="-1045.7" cy="235.22" r="102.86" fill="#d00c0c" stroke-width="3.3566"/>
    <circle transform="matrix(1.0833 0 0 1.0833 315.71 57.541)" cx="-1045.7" cy="235.22" r="102.86" fill="#d50d0d" stroke-width="3.9955"/>
    <path d="m-817.16 200.94c-61.54 0-111.41 49.897-111.41 111.44 0 5.4882 0.38983 10.881 1.1562 16.156 8.0086-42.516 54.312-75.125 110.25-75.125 55.925 0 102.26 32.592 110.28 75.094 0.7634-5.2656 1.1562-10.648 1.1562-16.125 0-61.54-49.897-111.44-111.44-111.44z" fill="#b40c0c" stroke-width="4.3285"/>
    <path d="m-902.62 383.84c20.44 24.419 51.133 39.938 85.469 39.938s65.06-15.518 85.5-39.938c-22.412 18.5-52.476 29.812-85.5 29.812s-63.056-11.313-85.469-29.812z" fill="#c40707" stroke-width="4.3285"/>
    <path d="m-817.16 180.72c-72.698 0-131.62 58.958-131.62 131.66s58.927 131.62 131.62 131.62c23.394 0 45.368-6.1125 64.406-16.812-16.244 6.7573-34.219 10.531-53.125 10.531-72.586 0-131.44-55.347-131.44-123.59s58.852-123.56 131.44-123.56c27.22 0 52.493 7.7698 73.469 21.094-22.898-19.286-52.468-30.938-84.75-30.938z" fill="#d15b5b" opacity=".6788" stroke-width="4.3285"/>
   </g>
   <g transform="matrix(.11872 -.094111 .12294 .13752 -172.34 69.369)" stroke="#b50000">
    <circle transform="matrix(1.2895 0 0 1.2895 531.33 9.0409)" cx="-1045.7" cy="235.22" r="102.86" fill="#d00c0c" stroke-width="3.3566"/>
    <circle transform="matrix(1.0833 0 0 1.0833 315.71 57.541)" cx="-1045.7" cy="235.22" r="102.86" fill="#d50d0d" stroke-width="3.9955"/>
    <path d="m-817.16 200.94c-61.54 0-111.41 49.897-111.41 111.44 0 5.4882 0.38983 10.881 1.1562 16.156 8.0086-42.516 54.312-75.125 110.25-75.125 55.925 0 102.26 32.592 110.28 75.094 0.7634-5.2656 1.1562-10.648 1.1562-16.125 0-61.54-49.897-111.44-111.44-111.44z" fill="#b40c0c" stroke-width="4.3285"/>
    <path d="m-902.62 383.84c20.44 24.419 51.133 39.938 85.469 39.938s65.06-15.518 85.5-39.938c-22.412 18.5-52.476 29.812-85.5 29.812s-63.056-11.313-85.469-29.812z" fill="#c40707" stroke-width="4.3285"/>
    <path d="m-817.16 180.72c-72.698 0-131.62 58.958-131.62 131.66s58.927 131.62 131.62 131.62c23.394 0 45.368-6.1125 64.406-16.812-16.244 6.7573-34.219 10.531-53.125 10.531-72.586 0-131.44-55.347-131.44-123.59s58.852-123.56 131.44-123.56c27.22 0 52.493 7.7698 73.469 21.094-22.898-19.286-52.468-30.938-84.75-30.938z" fill="#d15b5b" opacity=".6788" stroke-width="4.3285"/>
   </g>
   <path d="m-211.06-20.768a171.16 171.16 0 0 1 10.678 79.086 171.16 171.16 0 0 1 -187.56 153.01 171.16 171.16 0 0 1 -97.181 -43.275 171.16 171.16 0 0 0 142.34 108.48 171.16 171.16 0 0 0 187.56 -153.01 171.16 171.16 0 0 0 -55.833 -144.29z" fill="#4b0101" fill-opacity=".8902" opacity=".375"/>
   <circle transform="matrix(.079064 0 0 .079064 1203 -169.8)" cx="-20323" cy="2483.8" r="853.43" fill="#fff" fill-opacity=".98824" filter="url(#a)" opacity=".329"/>
   <g transform="matrix(-.11108 -.0095267 -.0027056 .16776 -280.56 39.745)" stroke="#b50000">
    <circle transform="matrix(1.2895 0 0 1.2895 531.33 9.0409)" cx="-1045.7" cy="235.22" r="102.86" fill="#d00c0c" stroke-width="3.3566"/>
    <circle transform="matrix(1.0833 0 0 1.0833 315.71 57.541)" cx="-1045.7" cy="235.22" r="102.86" fill="#d50d0d" stroke-width="3.9955"/>
    <path d="m-817.16 200.94c-61.54 0-111.41 49.897-111.41 111.44 0 5.4882 0.38983 10.881 1.1562 16.156 8.0086-42.516 54.312-75.125 110.25-75.125 55.925 0 102.26 32.592 110.28 75.094 0.7634-5.2656 1.1562-10.648 1.1562-16.125 0-61.54-49.897-111.44-111.44-111.44z" fill="#b40c0c" stroke-width="4.3285"/>
    <path d="m-902.62 383.84c20.44 24.419 51.133 39.938 85.469 39.938s65.06-15.518 85.5-39.938c-22.412 18.5-52.476 29.812-85.5 29.812s-63.056-11.313-85.469-29.812z" fill="#c40707" stroke-width="4.3285"/>
    <path d="m-817.16 180.72c-72.698 0-131.62 58.958-131.62 131.66s58.927 131.62 131.62 131.62c23.394 0 45.368-6.1125 64.406-16.812-16.244 6.7573-34.219 10.531-53.125 10.531-72.586 0-131.44-55.347-131.44-123.59s58.852-123.56 131.44-123.56c27.22 0 52.493 7.7698 73.469 21.094-22.898-19.286-52.468-30.938-84.75-30.938z" fill="#d15b5b" opacity=".6788" stroke-width="4.3285"/>
   </g>
  </g>
 </g>
</svg>
