<?xml version='1.0' encoding='utf-8'?>
<svg xmlns="http://www.w3.org/2000/svg" version="1.1" id="Frame_0" width="1920px" height="1080px"> <g id="Layer_6"> <g id="Layer_7"> <clipPath id="cf03e9c4-6f45-4fc9-b822-ac0c60b5f866"> <path fill="#ff8400" fill-rule="evenodd" stroke="none" d="M 950.963 177.420 C 747.372 177.420 583.135 341.658 583.135 545.248 C 583.135 748.838 747.372 913.075 950.963 913.075 C 1154.553 913.075 1318.791 748.838 1318.791 545.248 C 1318.791 341.657 1154.553 177.420 950.963 177.420 Z"/> </clipPath> <path fill="#ff8400" fill-rule="evenodd" stroke="#000000" stroke-width="6" stroke-opacity="0.000000" stroke-linecap="round" stroke-linejoin="round" d="M 950.963 177.420 C 747.372 177.420 583.135 341.658 583.135 545.248 C 583.135 748.838 747.372 913.075 950.963 913.075 C 1154.553 913.075 1318.791 748.838 1318.791 545.248 C 1318.791 341.657 1154.553 177.420 950.963 177.420 Z"/> </g> <g id="Layer_2"> <path fill="#ffb400" fill-rule="evenodd" stroke="none" d="M 640.631 347.358 C 640.631 347.358 640.631 347.358 640.631 347.358 C 642.453 353.555 646.179 361.577 646.706 368.014 C 648.576 390.892 622.191 423.286 633.340 443.350 C 634.617 445.648 638.831 446.294 640.631 448.210 C 647.325 455.341 646.752 472.463 655.212 477.372 C 665.972 483.618 684.450 476.728 696.524 473.727 C 704.933 471.638 714.637 463.673 723.256 462.791 C 728.026 462.304 734.714 467.262 739.053 465.222 C 746.429 461.754 743.058 441.212 751.204 440.920 C 761.967 440.533 757.092 467.368 765.785 473.727 C 771.444 477.867 782.234 479.633 788.871 477.372 C 801.375 473.115 803.728 441.585 816.818 443.350 C 824.133 444.336 823.733 460.419 830.184 464.006 C 837.830 468.258 852.162 468.999 859.346 464.006 C 869.097 457.230 876.077 437.293 871.497 426.339 C 867.221 416.110 840.026 420.333 838.690 409.328 C 837.256 397.513 857.646 380.464 869.067 383.811 C 877.382 386.247 872.348 406.482 880.003 410.543 C 885.879 413.660 897.606 411.999 901.874 406.898 C 907.026 400.741 897.330 387.470 900.659 380.165 C 904.651 371.408 918.336 355.143 926.176 360.724 C 931.259 364.342 923.628 375.142 923.746 381.380 C 923.984 393.964 934.087 410.483 931.037 422.694 C 927.767 435.784 894.351 447.651 903.089 457.931 C 906.168 461.553 915.057 453.899 918.885 456.716 C 923.954 460.445 917.557 473.518 922.531 477.372 C 935.395 487.340 959.081 458.505 974.780 462.791 C 985.475 465.712 991.543 483.458 1001.512 488.309 C 1010.135 492.504 1027.456 485.419 1033.104 493.169 C 1041.749 505.029 1012.972 528.241 1020.953 540.557 C 1025.092 546.945 1039.226 543.202 1045.255 547.848 C 1051.347 552.541 1050.956 569.104 1058.621 569.719 C 1064.273 570.173 1066.766 558.567 1071.987 556.353 C 1078.364 553.650 1091.190 550.619 1095.073 556.353 C 1103.632 568.990 1066.718 580.637 1062.266 595.236 C 1059.388 604.676 1059.802 619.473 1064.696 628.044 C 1068.710 635.072 1086.100 635.760 1086.568 643.840 C 1086.956 650.530 1067.283 653.914 1070.772 659.636 C 1073.057 663.384 1081.148 659.680 1085.353 658.421 C 1093.020 656.126 1100.451 644.570 1108.440 645.055 C 1119.807 645.744 1126.263 668.298 1137.602 669.356 C 1148.812 670.403 1161.153 644.720 1170.409 651.130 C 1177.309 655.908 1163.095 673.314 1169.194 679.078 C 1175.047 684.608 1189.102 680.922 1195.926 676.647 C 1205.468 670.670 1204.611 649.816 1214.153 643.840 C 1220.362 639.951 1232.099 637.764 1238.454 641.410 C 1243.403 644.249 1241.956 655.679 1246.960 658.421 C 1252.432 661.420 1264.253 650.735 1267.616 655.991 C 1272.349 663.385 1241.805 671.821 1248.175 677.863 C 1251.520 681.036 1259.000 675.676 1262.756 673.002 C 1277.584 662.447 1287.839 638.448 1295.564 621.968 C 1299.478 613.618 1301.866 601.371 1305.284 592.806 C 1312.174 575.543 1323.997 553.680 1332.016 536.912 C 1332.016 536.912 1332.016 536.912 1332.016 536.912 C 1330.194 558.054 1331.934 587.030 1325.941 607.387 C 1322.718 618.334 1316.080 632.517 1308.930 641.410 C 1306.502 644.430 1301.418 646.732 1299.209 649.915 C 1292.241 659.956 1294.060 678.781 1287.058 688.798 C 1282.753 694.957 1273.120 699.477 1267.616 704.594 C 1257.794 713.728 1250.589 738.704 1237.239 737.402 C 1229.760 736.673 1228.319 720.992 1221.443 717.960 C 1217.774 716.342 1211.451 715.794 1208.077 717.960 C 1200.026 723.130 1192.959 740.437 1198.357 748.337 C 1205.142 758.270 1234.433 737.000 1238.454 748.337 C 1241.472 756.843 1226.563 768.058 1217.798 770.209 C 1206.817 772.904 1193.683 758.868 1182.560 756.843 C 1172.160 754.950 1157.440 753.778 1147.323 756.843 C 1137.260 759.892 1128.663 775.787 1118.161 776.285 C 1108.714 776.732 1099.669 761.542 1090.214 761.704 C 1074.139 761.977 1060.911 787.212 1045.255 790.866 C 1039.210 792.276 1030.803 789.837 1024.599 789.651 C 1016.947 789.421 1006.294 787.085 999.081 789.651 C 984.735 794.755 975.668 818.317 961.414 823.673 C 949.812 828.032 932.303 825.845 920.101 823.673 C 906.701 821.288 890.868 804.967 877.573 807.877 C 870.504 809.424 866.051 826.392 859.346 823.673 C 849.123 819.526 867.109 797.864 864.207 787.220 C 861.540 777.442 853.587 761.895 843.550 760.488 C 835.740 759.394 829.534 774.377 821.679 775.070 C 816.621 775.516 807.171 773.905 805.882 768.994 C 803.786 761.000 826.190 759.025 826.539 750.768 C 827.118 737.058 803.220 728.406 791.301 721.606 C 782.185 716.404 765.138 717.580 758.494 709.455 C 753.561 703.422 757.827 690.506 753.634 683.938 C 747.268 673.968 724.883 673.177 720.826 662.066 C 719.305 657.900 724.372 651.777 723.256 647.485 C 720.338 636.256 708.108 618.881 696.524 619.538 C 688.273 620.006 686.373 641.954 678.298 640.195 C 673.198 639.084 674.997 627.764 671.008 624.398 C 668.099 621.944 661.250 623.712 658.857 620.753 C 653.351 613.945 663.177 599.778 660.072 591.591 C 656.232 581.469 645.311 564.849 634.555 566.074 C 623.498 567.333 617.632 586.827 615.113 597.667 C 612.544 608.725 619.031 623.984 618.759 635.334 C 618.264 656.004 607.824 703.372 607.823 703.379 C 598.710 678.227 583.107 645.685 577.446 619.538 C 572.878 598.443 571.149 569.431 571.370 547.848 C 571.757 510.050 571.938 457.801 585.951 422.694 C 596.304 396.757 640.625 347.366 640.631 347.358 C 640.631 347.358 640.631 347.358 640.631 347.358 Z" clip-path="url(#cf03e9c4-6f45-4fc9-b822-ac0c60b5f866)"/> <path fill="none" stroke="#000000" stroke-width="6" stroke-opacity="0.000000" stroke-linecap="round" stroke-linejoin="round" d="M 607.823 703.379 C 607.823 703.379 607.823 703.379 607.823 703.379 C 607.824 703.372 618.264 656.004 618.759 635.334 C 619.031 623.984 612.544 608.725 615.113 597.667 C 617.632 586.827 623.498 567.333 634.555 566.074 C 645.311 564.849 656.232 581.469 660.072 591.591 C 663.177 599.778 653.351 613.945 658.857 620.753 C 661.250 623.712 668.099 621.944 671.008 624.398 C 674.997 627.764 673.198 639.084 678.298 640.195 C 686.373 641.954 688.273 620.006 696.524 619.538 C 708.108 618.881 720.338 636.256 723.256 647.485 C 724.372 651.777 719.305 657.900 720.826 662.066 C 724.883 673.177 747.268 673.968 753.634 683.938 C 757.827 690.506 753.561 703.422 758.494 709.455 C 765.138 717.580 782.185 716.404 791.301 721.606 C 803.220 728.406 827.118 737.058 826.539 750.768 C 826.190 759.025 803.786 761.000 805.882 768.994 C 807.171 773.905 816.621 775.516 821.679 775.070 C 829.534 774.377 835.740 759.394 843.550 760.488 C 853.587 761.895 861.540 777.442 864.207 787.220 C 867.109 797.864 849.123 819.526 859.346 823.673 C 866.051 826.392 870.504 809.424 877.573 807.877 C 890.868 804.967 906.701 821.288 920.101 823.673 C 932.303 825.845 949.812 828.032 961.414 823.673 C 975.668 818.317 984.735 794.755 999.081 789.651 C 1006.294 787.085 1016.947 789.421 1024.599 789.651 C 1030.803 789.837 1039.210 792.276 1045.255 790.866 C 1060.911 787.212 1074.139 761.977 1090.214 761.704 C 1099.669 761.542 1108.714 776.732 1118.161 776.285 C 1128.663 775.787 1137.260 759.892 1147.323 756.843 C 1157.440 753.778 1172.160 754.950 1182.560 756.843 C 1193.683 758.868 1206.817 772.904 1217.798 770.209 C 1226.563 768.058 1241.472 756.843 1238.454 748.337 C 1234.433 737.000 1205.142 758.270 1198.357 748.337 C 1192.959 740.437 1200.026 723.130 1208.077 717.960 C 1211.451 715.794 1217.774 716.342 1221.443 717.960 C 1228.319 720.992 1229.760 736.673 1237.239 737.402 C 1250.589 738.704 1257.794 713.728 1267.616 704.594 C 1273.120 699.477 1282.753 694.957 1287.058 688.798 C 1294.060 678.781 1292.241 659.956 1299.209 649.915 C 1301.418 646.732 1306.502 644.430 1308.930 641.410 C 1316.080 632.517 1322.718 618.334 1325.941 607.387 C 1331.934 587.030 1330.194 558.054 1332.016 536.912 C 1323.997 553.680 1312.174 575.543 1305.284 592.806 C 1301.866 601.371 1299.478 613.618 1295.564 621.968 C 1287.839 638.448 1277.584 662.447 1262.756 673.002 C 1259.000 675.676 1251.520 681.036 1248.175 677.863 C 1241.805 671.821 1272.349 663.385 1267.616 655.991 C 1264.253 650.735 1252.432 661.420 1246.960 658.421 C 1241.956 655.679 1243.403 644.249 1238.454 641.410 C 1232.099 637.764 1220.362 639.951 1214.153 643.840 C 1204.611 649.816 1205.468 670.670 1195.926 676.647 C 1189.102 680.922 1175.047 684.608 1169.194 679.078 C 1163.095 673.314 1177.309 655.908 1170.409 651.130 C 1161.153 644.720 1148.812 670.403 1137.602 669.356 C 1126.263 668.298 1119.807 645.744 1108.440 645.055 C 1100.451 644.570 1093.020 656.126 1085.353 658.421 C 1081.148 659.680 1073.057 663.384 1070.772 659.636 C 1067.283 653.914 1086.956 650.530 1086.568 643.840 C 1086.100 635.760 1068.710 635.072 1064.696 628.044 C 1059.802 619.473 1059.388 604.676 1062.266 595.236 C 1066.718 580.637 1103.632 568.990 1095.073 556.353 C 1091.190 550.619 1078.364 553.650 1071.987 556.353 C 1066.766 558.567 1064.273 570.173 1058.621 569.719 C 1050.956 569.104 1051.347 552.541 1045.255 547.848 C 1039.226 543.202 1025.092 546.945 1020.953 540.557 C 1012.972 528.241 1041.749 505.029 1033.104 493.169 C 1027.456 485.419 1010.135 492.504 1001.512 488.309 C 991.543 483.458 985.475 465.712 974.780 462.791 C 959.081 458.505 935.395 487.340 922.531 477.372 C 917.557 473.518 923.954 460.445 918.885 456.716 C 915.057 453.899 906.168 461.553 903.089 457.931 C 894.351 447.651 927.767 435.784 931.037 422.694 C 934.087 410.483 923.984 393.964 923.746 381.380 C 923.628 375.142 931.259 364.342 926.176 360.724 C 918.336 355.143 904.651 371.408 900.659 380.165 C 897.330 387.470 907.026 400.741 901.874 406.898 C 897.606 411.999 885.879 413.660 880.003 410.543 C 872.348 406.482 877.382 386.247 869.067 383.811 C 857.646 380.464 837.256 397.513 838.690 409.328 C 840.026 420.333 867.221 416.110 871.497 426.339 C 876.077 437.293 869.097 457.230 859.346 464.006 C 852.162 468.999 837.830 468.258 830.184 464.006 C 823.733 460.419 824.133 444.336 816.818 443.350 C 803.728 441.585 801.375 473.115 788.871 477.372 C 782.234 479.633 771.444 477.867 765.785 473.727 C 757.092 467.368 761.967 440.533 751.204 440.920 C 743.058 441.212 746.429 461.754 739.053 465.222 C 734.714 467.262 728.026 462.304 723.256 462.791 C 714.637 463.673 704.933 471.638 696.524 473.727 C 684.450 476.728 665.972 483.618 655.212 477.372 C 646.752 472.463 647.325 455.341 640.631 448.210 C 638.831 446.294 634.617 445.648 633.340 443.350 C 622.191 423.286 648.576 390.892 646.706 368.014 C 646.179 361.577 642.453 353.555 640.631 347.358 C 640.631 347.358 640.631 347.358 640.631 347.358 C 640.625 347.366 596.304 396.757 585.951 422.694 C 571.938 457.801 571.757 510.050 571.370 547.848 C 571.149 569.431 572.878 598.443 577.446 619.538 C 583.107 645.685 598.710 678.227 607.823 703.379 M 1332.016 536.912 C 1332.016 536.912 1332.016 536.912 1332.016 536.912 M 640.631 347.358 C 640.631 347.358 640.631 347.358 640.631 347.358 " clip-path="url(#cf03e9c4-6f45-4fc9-b822-ac0c60b5f866)"/> <path fill="#ff5a00" fill-rule="evenodd" stroke="#000000" stroke-width="6" stroke-opacity="0.000000" stroke-linecap="round" stroke-linejoin="round" d="M 1049.915 435.073 C 1046.430 437.517 1041.006 430.438 1036.839 429.567 C 1030.978 428.342 1021.465 433.419 1016.880 429.567 C 1012.229 425.659 1012.143 415.545 1013.440 409.609 C 1013.795 407.983 1016.265 406.454 1016.192 404.791 C 1015.970 399.684 1005.080 397.481 1004.493 392.403 C 1004.122 389.193 1009.706 385.975 1009.310 382.768 C 1008.630 377.262 1001.413 371.680 996.234 369.692 C 993.536 368.655 988.696 371.680 986.599 369.692 C 982.692 365.987 984.105 355.541 987.975 351.798 C 992.873 347.061 1005.236 355.887 1010.687 351.798 C 1014.865 348.664 1017.426 340.356 1016.192 335.281 C 1015.467 332.298 1008.825 330.741 1009.310 327.710 C 1010.700 319.029 1031.060 317.785 1038.216 322.892 C 1043.720 326.822 1037.916 340.493 1043.033 344.916 C 1048.665 349.784 1062.541 341.033 1067.809 346.292 C 1070.765 349.242 1066.993 357.034 1069.874 360.056 C 1074.892 365.321 1089.466 357.092 1093.962 362.809 C 1097.417 367.203 1090.161 376.354 1092.585 381.392 C 1096.162 388.827 1117.292 387.698 1115.985 395.844 C 1115.457 399.131 1108.055 398.491 1106.350 401.350 C 1103.492 406.141 1109.541 414.947 1107.038 419.932 C 1105.851 422.295 1101.110 422.972 1100.156 425.438 C 1098.078 430.809 1106.928 438.603 1104.973 444.020 C 1102.446 451.022 1091.768 457.980 1084.326 457.784 C 1074.495 457.526 1064.648 445.091 1058.862 437.138 C 1054.283 430.844 1054.656 418.627 1049.227 413.050 C 1045.877 409.609 1039.110 408.232 1034.774 406.167 C 1034.774 406.167 1034.774 406.167 1034.774 406.167 C 1034.981 406.787 1057.931 429.453 1049.915 435.073 Z" clip-path="url(#cf03e9c4-6f45-4fc9-b822-ac0c60b5f866)"/> <path fill="#ff5a00" fill-rule="evenodd" stroke="#000000" stroke-width="6" stroke-opacity="0.000000" stroke-linecap="round" stroke-linejoin="round" d="M 1208.760 445.583 C 1212.417 450.479 1223.905 447.255 1228.229 451.573 C 1233.091 456.429 1238.552 467.836 1234.719 473.539 C 1233.158 475.861 1227.644 473.992 1225.733 476.035 C 1221.009 481.085 1227.971 493.532 1223.736 498.999 C 1221.725 501.596 1215.598 500.776 1213.752 503.492 C 1211.898 506.220 1215.615 512.173 1213.253 514.475 C 1211.319 516.359 1206.275 516.779 1204.267 514.974 C 1201.704 512.672 1206.641 505.988 1204.267 503.492 C 1201.787 500.886 1194.016 506.147 1192.285 502.993 C 1189.821 498.502 1202.063 494.588 1202.769 489.514 C 1203.481 484.390 1199.827 477.304 1196.279 473.539 C 1186.818 463.499 1165.560 463.480 1153.346 457.065 C 1149.705 455.152 1142.345 453.661 1141.864 449.576 C 1141.282 444.632 1152.776 442.957 1153.845 438.094 C 1154.772 433.883 1148.140 428.868 1148.853 424.615 C 1149.558 420.417 1153.875 415.184 1157.839 413.633 C 1163.365 411.470 1171.878 419.518 1177.309 417.127 C 1181.149 415.436 1181.516 407.466 1185.296 405.645 C 1189.902 403.427 1198.663 403.520 1202.270 407.143 C 1205.666 410.554 1201.369 418.944 1203.767 423.118 C 1204.828 424.963 1208.554 425.602 1209.259 427.611 C 1209.969 429.634 1208.211 432.503 1207.761 434.600 C 1207.761 434.600 1207.761 434.600 1207.761 434.600 C 1207.611 434.750 1206.780 442.932 1208.760 445.583 Z" clip-path="url(#cf03e9c4-6f45-4fc9-b822-ac0c60b5f866)"/> <path fill="#ff5a00" fill-rule="evenodd" stroke="#000000" stroke-width="6" stroke-opacity="0.000000" stroke-linecap="round" stroke-linejoin="round" d="M 800.478 672.146 C 798.743 675.823 792.290 678.474 788.254 677.993 C 782.758 677.337 776.854 670.747 774.436 665.769 C 773.035 662.886 775.485 657.549 773.373 655.139 C 769.136 650.306 756.595 647.874 752.114 652.482 C 749.891 654.768 754.801 661.395 752.114 663.111 C 747.864 665.825 739.614 658.411 738.295 653.545 C 736.071 645.336 744.342 630.934 752.645 629.097 C 757.242 628.080 763.136 633.206 766.464 636.538 C 767.778 637.853 767.810 641.604 769.652 641.852 C 771.664 642.123 773.606 638.921 774.436 637.069 C 776.130 633.286 771.185 625.823 774.436 623.251 C 782.159 617.138 793.725 636.286 803.135 639.195 C 810.638 641.514 824.158 635.813 829.178 641.852 C 832.337 645.653 832.589 654.751 829.178 658.328 C 825.435 662.253 815.464 655.630 811.108 658.859 C 809.962 659.709 810.297 662.560 808.982 663.111 C 804.492 664.992 799.309 657.159 795.163 654.608 C 795.163 654.608 795.163 654.608 795.163 654.608 C 795.482 655.086 802.824 667.174 800.478 672.146 Z" clip-path="url(#cf03e9c4-6f45-4fc9-b822-ac0c60b5f866)"/> <path fill="#ff5a00" fill-rule="evenodd" stroke="#000000" stroke-width="6" stroke-opacity="0.000000" stroke-linecap="round" stroke-linejoin="round" d="M 1241.146 615.109 C 1245.620 619.978 1258.415 614.928 1262.634 620.020 C 1266.050 624.143 1261.599 632.973 1263.862 637.825 C 1265.624 641.602 1269.718 648.923 1273.685 647.648 C 1278.100 646.229 1273.619 636.526 1275.527 632.299 C 1277.031 628.967 1280.002 622.057 1283.508 623.090 C 1287.411 624.240 1280.939 635.136 1284.736 636.597 C 1290.872 638.957 1288.417 621.654 1289.034 615.109 C 1289.414 611.075 1288.856 605.650 1289.034 601.602 C 1289.131 599.386 1287.945 595.655 1289.648 594.234 C 1290.638 593.409 1292.838 594.895 1293.946 594.234 C 1298.448 591.551 1295.017 580.422 1299.471 577.658 C 1301.036 576.687 1304.191 578.832 1305.610 577.658 C 1309.585 574.371 1307.402 565.303 1305.610 560.467 C 1303.750 555.447 1299.248 546.217 1293.946 546.960 C 1289.782 547.544 1291.330 558.498 1287.192 559.239 C 1279.321 560.650 1269.980 546.337 1270.615 538.365 C 1271.216 530.831 1284.989 527.560 1289.034 521.175 C 1293.273 514.482 1295.934 503.851 1297.015 496.003 C 1297.342 493.631 1299.046 489.289 1297.015 488.021 C 1292.162 484.991 1292.285 504.392 1286.578 503.984 C 1275.541 503.196 1290.669 476.487 1284.736 467.147 C 1280.620 460.668 1269.172 450.231 1262.634 454.254 C 1257.144 457.633 1260.809 469.560 1262.634 475.742 C 1263.922 480.105 1270.810 484.090 1270.615 488.635 C 1270.441 492.721 1263.498 495.689 1262.634 499.686 C 1261.435 505.232 1267.454 512.455 1266.932 518.105 C 1266.279 525.163 1261.683 534.179 1257.109 539.593 C 1254.897 542.210 1248.453 542.966 1247.899 546.346 C 1246.888 552.521 1259.746 555.866 1262.020 561.695 C 1265.034 569.418 1266.389 582.697 1261.406 589.323 C 1259.821 591.431 1256.023 592.555 1253.425 593.007 C 1248.856 593.801 1242.681 591.717 1238.076 591.165 C 1238.076 591.165 1238.076 591.165 1238.076 591.165 C 1237.708 591.349 1236.246 609.776 1241.146 615.109 Z" clip-path="url(#cf03e9c4-6f45-4fc9-b822-ac0c60b5f866)"/> <path fill="#ff5a00" fill-rule="evenodd" stroke="#000000" stroke-width="6" stroke-opacity="0.000000" stroke-linecap="round" stroke-linejoin="round" d="M 751.891 362.946 C 747.908 363.303 742.475 367.180 738.819 365.560 C 733.174 363.060 726.677 352.797 729.407 347.259 C 732.693 340.593 746.616 345.108 753.983 344.122 C 762.932 342.924 776.796 345.652 783.787 339.939 C 788.254 336.289 786.584 325.738 791.108 322.160 C 798.650 316.196 813.925 322.188 823.005 319.023 C 828.924 316.959 834.558 307.298 840.783 308.042 C 844.974 308.543 849.980 313.426 851.241 317.454 C 852.740 322.247 843.885 329.771 847.058 333.664 C 850.637 338.057 860.600 330.041 865.882 332.095 C 870.328 333.825 879.061 339.365 876.863 343.599 C 875.912 345.430 871.040 342.826 870.065 344.645 C 867.602 349.241 881.491 352.014 882.091 357.194 C 882.938 364.498 875.079 374.312 868.496 377.587 C 861.742 380.948 850.497 373.466 843.397 376.018 C 833.168 379.697 827.651 397.097 817.776 401.640 C 810.615 404.934 797.899 409.035 791.631 404.255 C 787.274 400.932 791.544 390.115 787.448 386.476 C 784.015 383.426 775.473 387.689 772.284 384.385 C 767.921 379.864 771.552 369.744 771.238 363.469 C 771.238 363.469 771.238 363.469 771.238 363.469 C 771.395 363.312 757.674 362.428 751.891 362.946 Z" clip-path="url(#cf03e9c4-6f45-4fc9-b822-ac0c60b5f866)"/> <path fill="#ff5a00" fill-rule="evenodd" stroke="#000000" stroke-width="6" stroke-opacity="0.000000" stroke-linecap="round" stroke-linejoin="round" d="M 938.203 923.747 C 938.203 923.747 938.203 923.747 938.203 923.747 C 956.409 922.420 980.686 920.678 998.890 919.322 C 1009.195 918.555 1023.075 918.601 1033.235 916.716 C 1052.958 913.058 1077.930 902.820 1096.994 896.582 C 1109.450 892.506 1127.446 889.821 1138.382 882.599 C 1148.196 876.118 1163.354 865.203 1164.669 853.516 C 1165.031 850.296 1160.767 846.689 1160.754 843.449 C 1160.743 840.954 1163.975 838.077 1163.550 835.619 C 1163.264 833.965 1160.325 832.817 1160.194 831.144 C 1159.510 822.363 1176.328 817.096 1179.210 808.773 C 1180.912 803.858 1182.888 795.113 1179.210 791.435 C 1175.532 787.757 1166.010 788.283 1161.872 791.435 C 1157.985 794.396 1160.733 803.524 1157.398 807.095 C 1155.293 809.350 1149.431 808.338 1147.890 811.010 C 1146.195 813.949 1150.835 819.048 1149.568 822.196 C 1145.946 831.192 1130.555 834.683 1121.603 838.415 C 1117.732 840.030 1112.136 843.725 1108.180 842.330 C 1103.616 840.721 1104.067 828.700 1099.232 828.907 C 1096.482 829.025 1096.085 834.917 1093.639 836.178 C 1090.060 838.024 1083.438 833.762 1080.216 836.178 C 1075.003 840.087 1080.791 853.314 1075.741 857.431 C 1071.448 860.932 1060.844 862.235 1057.285 857.990 C 1056.099 856.576 1058.181 853.452 1057.285 851.838 C 1054.257 846.387 1039.466 849.568 1038.269 843.449 C 1037.174 837.855 1053.824 834.491 1051.133 829.467 C 1049.231 825.917 1040.948 827.073 1037.709 829.467 C 1030.722 834.632 1026.790 851.598 1032.676 857.990 C 1034.847 860.349 1040.359 857.839 1043.302 859.109 C 1047.665 860.992 1056.859 865.343 1055.048 869.736 C 1054.256 871.654 1050.090 870.304 1048.336 871.413 C 1042.632 875.021 1041.177 886.263 1035.472 889.870 C 1028.044 894.567 1015.175 892.786 1006.476 894.036 C 1006.476 894.036 1006.476 894.036 1006.476 894.036 C 1004.200 893.467 1001.082 892.973 998.890 892.139 C 994.448 890.450 989.702 885.117 984.982 884.553 C 978.904 883.828 968.246 884.830 965.386 890.243 C 963.085 894.596 972.126 901.702 969.811 906.047 C 966.588 912.095 953.379 907.921 947.685 911.736 C 943.872 914.292 938.204 923.746 938.203 923.747 C 938.203 923.747 938.203 923.747 938.203 923.747 Z" clip-path="url(#cf03e9c4-6f45-4fc9-b822-ac0c60b5f866)"/> <path fill="#ff5a00" fill-rule="evenodd" stroke="#000000" stroke-width="6" stroke-opacity="0.000000" stroke-linecap="round" stroke-linejoin="round" d="M 687.329 662.881 C 684.218 662.155 680.714 656.800 677.803 658.118 C 673.522 660.055 674.034 669.109 675.421 673.599 C 677.359 679.875 689.723 682.619 690.902 689.080 C 691.694 693.420 683.522 698.853 685.543 702.775 C 689.965 711.355 712.329 711.989 717.696 703.966 C 719.411 701.403 714.101 696.341 715.910 693.843 C 719.263 689.214 731.816 698.615 734.964 693.843 C 737.018 690.730 734.216 684.370 731.391 681.935 C 728.119 679.114 720.232 683.126 717.101 680.149 C 712.283 675.568 720.826 660.744 714.719 658.118 C 712.003 656.949 708.467 661.035 705.788 662.286 C 705.788 662.286 705.788 662.286 705.788 662.286 C 705.609 662.286 692.725 664.140 687.329 662.881 Z" clip-path="url(#cf03e9c4-6f45-4fc9-b822-ac0c60b5f866)"/> </g> <g id="Layer_3"> <path fill="#cd4b05" fill-rule="evenodd" stroke="#fca445" stroke-width="6" stroke-opacity="0.000000" stroke-linecap="round" stroke-linejoin="round" d="M 810.182 355.390 C 816.585 352.050 815.326 336.431 822.311 334.596 C 826.473 333.503 832.703 337.237 835.308 340.661 C 838.958 345.460 840.832 355.317 837.907 360.589 C 835.256 365.367 825.526 364.752 821.445 368.386 C 818.214 371.263 817.511 378.570 813.647 380.516 C 808.750 382.983 798.500 383.341 795.453 378.783 C 793.384 375.690 798.509 370.347 798.052 366.653 C 797.552 362.616 793.806 358.163 791.987 354.524 C 791.987 354.524 791.987 354.524 791.987 354.524 C 791.987 354.784 805.337 357.917 810.182 355.390 Z" clip-path="url(#cf03e9c4-6f45-4fc9-b822-ac0c60b5f866)"/> <path fill="#cd4b05" fill-rule="evenodd" stroke="#fca445" stroke-width="6" stroke-opacity="0.000000" stroke-linecap="round" stroke-linejoin="round" d="M 1045.810 355.547 C 1049.412 357.227 1051.076 363.359 1054.233 365.775 C 1058.148 368.772 1065.917 368.784 1069.275 372.393 C 1073.046 376.448 1071.442 385.862 1075.292 389.842 C 1078.275 392.926 1085.943 391.833 1088.529 395.257 C 1092.668 400.738 1094.101 412.821 1089.732 418.121 C 1088.643 419.442 1085.328 418.544 1084.317 419.926 C 1082.174 422.853 1088.201 429.514 1085.520 431.959 C 1082.512 434.704 1075.307 431.679 1072.283 428.951 C 1067.147 424.317 1070.573 412.104 1066.267 406.689 C 1058.929 397.463 1038.567 398.681 1030.768 389.842 C 1025.554 383.933 1019.338 372.678 1021.743 365.173 C 1023.153 360.771 1030.166 358.435 1033.776 355.547 C 1033.776 355.547 1033.776 355.547 1033.776 355.547 C 1033.957 355.547 1042.538 354.021 1045.810 355.547 Z" clip-path="url(#cf03e9c4-6f45-4fc9-b822-ac0c60b5f866)"/> <path fill="#cd4b05" fill-rule="evenodd" stroke="#fca445" stroke-width="6" stroke-opacity="0.000000" stroke-linecap="round" stroke-linejoin="round" d="M 1172.261 445.248 C 1174.864 448.116 1181.148 447.348 1184.559 449.183 C 1189.451 451.816 1195.708 456.392 1198.825 460.990 C 1203.490 467.869 1200.781 481.716 1206.697 487.555 C 1208.725 489.557 1212.978 492.225 1215.552 490.998 C 1221.187 488.313 1217.494 476.558 1218.011 470.337 C 1218.244 467.539 1219.674 463.542 1218.503 460.990 C 1216.010 455.558 1205.161 455.093 1201.777 450.167 C 1198.614 445.562 1200.544 436.855 1197.841 431.965 C 1195.620 427.947 1191.500 420.139 1187.019 421.143 C 1184.121 421.792 1185.089 428.391 1182.591 429.998 C 1179.240 432.153 1173.294 429.998 1169.309 429.998 C 1169.309 429.998 1169.309 429.998 1169.309 429.998 C 1169.014 430.145 1169.129 441.797 1172.261 445.248 Z" clip-path="url(#cf03e9c4-6f45-4fc9-b822-ac0c60b5f866)"/> <path fill="#cd4b05" fill-rule="evenodd" stroke="#fca445" stroke-width="6" stroke-opacity="0.000000" stroke-linecap="round" stroke-linejoin="round" d="M 1275.927 500.598 C 1275.804 504.787 1272.731 509.936 1272.387 514.113 C 1272.260 515.655 1273.000 517.741 1272.709 519.261 C 1271.627 524.906 1264.710 530.403 1263.377 535.994 C 1262.795 538.435 1262.960 541.885 1263.377 544.360 C 1264.286 549.752 1268.598 556.082 1269.813 561.414 C 1271.899 570.567 1276.199 584.197 1272.065 592.627 C 1269.821 597.203 1258.150 597.842 1258.551 602.924 C 1258.818 606.314 1265.497 606.935 1267.882 609.359 C 1269.922 611.432 1270.408 617.126 1273.304 617.397 C 1277.156 617.758 1280.782 611.344 1281.669 607.577 C 1282.438 604.305 1279.463 600.010 1279.123 596.666 C 1278.404 589.603 1281.466 580.014 1280.214 573.026 C 1279.023 566.384 1273.588 558.707 1271.485 552.295 C 1269.910 547.492 1266.687 540.920 1267.484 535.929 C 1268.382 530.309 1276.119 525.401 1277.668 519.926 C 1278.856 515.726 1277.291 509.726 1277.668 505.378 C 1278.051 500.964 1283.806 493.424 1280.214 490.830 C 1278.947 489.915 1276.069 490.678 1275.122 491.921 C 1274.461 492.789 1275.122 494.467 1275.122 495.558 C 1275.122 495.558 1275.122 495.558 1275.122 495.558 C 1275.074 495.718 1275.972 499.067 1275.927 500.598 Z" clip-path="url(#cf03e9c4-6f45-4fc9-b822-ac0c60b5f866)"/> <path fill="#cd4b05" fill-rule="evenodd" stroke="#fca445" stroke-width="6" stroke-opacity="0.000000" stroke-linecap="round" stroke-linejoin="round" d="M 1160.098 857.251 C 1160.098 857.251 1160.098 857.251 1160.098 857.251 C 1158.586 853.344 1158.052 847.156 1155.057 844.227 C 1151.438 840.687 1144.148 838.524 1139.091 838.765 C 1129.744 839.211 1120.249 850.120 1111.362 853.050 C 1104.199 855.411 1092.395 852.455 1086.574 857.251 C 1081.552 861.389 1083.836 873.566 1078.591 877.418 C 1073.901 880.862 1064.259 876.110 1059.265 879.098 C 1053.865 882.330 1053.477 893.788 1047.921 896.744 C 1043.359 899.171 1035.580 895.055 1030.696 896.744 C 1022.582 899.550 1015.403 909.684 1008.849 915.230 C 1008.849 915.230 1008.849 915.230 1008.849 915.230 C 1015.151 914.978 1023.605 915.237 1029.856 914.390 C 1048.031 911.927 1072.116 906.202 1089.095 899.265 C 1112.007 889.903 1160.091 857.255 1160.098 857.251 C 1160.098 857.251 1160.098 857.251 1160.098 857.251 Z" clip-path="url(#cf03e9c4-6f45-4fc9-b822-ac0c60b5f866)"/> <path fill="#cd4b05" fill-rule="evenodd" stroke="#fca445" stroke-width="6" stroke-opacity="0.000000" stroke-linecap="round" stroke-linejoin="round" d="M 692.689 678.344 C 694.163 680.852 695.865 684.550 696.003 687.455 C 696.151 690.601 692.091 694.698 693.311 697.602 C 694.528 700.501 699.322 703.305 702.422 702.779 C 705.153 702.315 707.716 698.560 708.634 695.946 C 709.438 693.657 706.605 689.680 708.220 687.870 C 709.959 685.921 715.781 689.808 716.917 687.455 C 718.242 684.712 711.442 682.483 710.498 679.587 C 709.243 675.736 714.391 668.997 711.533 666.127 C 708.497 663.078 701.530 666.983 697.245 667.369 C 694.573 667.610 690.085 666.159 688.341 668.197 C 687.411 669.284 688.196 671.531 688.134 672.960 C 688.134 672.960 688.134 672.960 688.134 672.960 C 688.196 673.022 691.618 676.520 692.689 678.344 Z" clip-path="url(#cf03e9c4-6f45-4fc9-b822-ac0c60b5f866)"/> <path fill="#cd4b05" fill-rule="evenodd" stroke="#fca445" stroke-width="6" stroke-opacity="0.000000" stroke-linecap="round" stroke-linejoin="round" d="M 745.740 647.940 C 746.843 645.577 751.557 645.092 752.717 642.757 C 753.409 641.363 751.659 638.491 752.916 637.574 C 754.675 636.292 757.731 639.224 759.694 640.165 C 762.958 641.731 766.475 646.857 770.060 646.345 C 773.409 645.867 774.633 639.269 777.834 638.172 C 781.154 637.034 786.356 638.211 789.396 639.966 C 790.385 640.537 790.989 642.201 791.987 642.757 C 798.801 646.548 811.751 639.957 817.901 644.750 C 818.809 645.457 819.908 647.009 819.695 648.139 C 819.048 651.587 813.012 653.496 809.529 653.920 C 805.697 654.387 800.906 649.359 797.170 650.332 C 795.243 650.833 792.858 652.842 792.186 654.717 C 790.901 658.309 797.663 664.183 795.176 667.077 C 793.109 669.482 787.167 668.556 784.611 666.678 C 780.507 663.662 784.081 653.414 780.027 650.332 C 777.971 648.769 773.999 649.981 771.455 649.534 C 767.368 648.818 762.233 645.595 758.099 645.946 C 755.908 646.133 752.844 647.151 751.321 648.737 C 749.567 650.566 751.064 656.629 748.531 656.711 C 747.071 656.758 746.577 653.920 745.740 652.724 C 745.740 652.724 745.740 652.724 745.740 652.724 C 745.800 652.724 745.133 649.240 745.740 647.940 Z" clip-path="url(#cf03e9c4-6f45-4fc9-b822-ac0c60b5f866)"/> </g> <g id="Layer_4"> <path fill="#000000" fill-rule="evenodd" fill-opacity="0.176471" stroke="#fca445" stroke-width="6" stroke-opacity="0.000000" stroke-linecap="round" stroke-linejoin="round" d="M 938.674 23.215 C 1237.580 23.215 1465.747 254.018 1465.747 525.854 C 1465.747 797.690 1237.580 1028.493 938.674 1028.493 C 639.768 1028.493 411.601 797.690 411.601 525.854 C 411.601 254.018 639.768 23.215 938.674 23.215 Z" clip-path="url(#cf03e9c4-6f45-4fc9-b822-ac0c60b5f866)"/> <path fill="#ffba00" fill-rule="evenodd" fill-opacity="0.254902" stroke="#fca445" stroke-width="6" stroke-opacity="0.000000" stroke-linecap="round" stroke-linejoin="round" d="M 843.558 117.660 C 1032.294 117.660 1191.621 275.381 1191.621 480.628 C 1191.621 685.874 1032.295 843.596 843.558 843.596 C 654.821 843.596 495.495 685.874 495.495 480.628 C 495.495 275.381 654.821 117.660 843.558 117.660 Z" clip-path="url(#cf03e9c4-6f45-4fc9-b822-ac0c60b5f866)"/> <path fill="#ffe9af" fill-rule="evenodd" fill-opacity="0.117647" stroke="#fca445" stroke-width="6" stroke-opacity="0.000000" stroke-linecap="round" stroke-linejoin="round" d="M 851.449 235.142 C 953.758 235.142 1040.823 321.165 1040.823 434.161 C 1040.823 547.156 953.758 633.179 851.449 633.179 C 749.139 633.179 662.074 547.156 662.074 434.161 C 662.074 321.165 749.139 235.142 851.449 235.142 Z" clip-path="url(#cf03e9c4-6f45-4fc9-b822-ac0c60b5f866)"/> </g> </g> </svg>